<?xml version="1.0" standalone="no"?>
<!DOCTYPE svg PUBLIC "-//W3C//DTD SVG 20010904//EN"
 "http://www.w3.org/TR/2001/REC-SVG-20010904/DTD/svg10.dtd">
<svg version="1.0" xmlns="http://www.w3.org/2000/svg"
 width="800.000000pt" height="800.000000pt" viewBox="0 0 800.000000 800.000000"
 preserveAspectRatio="xMidYMid meet">
<metadata>
Created by potrace 1.14, written by Peter Selinger 2001-2017
</metadata>
<g transform="translate(0.000000,800.000000) scale(0.100000,-0.100000)"
fill="#000000" stroke="none">
<path d="M2 3998 l3 -4003 2 3998 3 3997 3990 0 3990 0 3 -3997 2 -3998 3
4003 2 4002 -4000 0 -4000 0 2 -4002z"/>
<path d="M5753 7328 c-618 -584 -929 -880 -1475 -1400 -151 -144 -239 -220
-262 -228 -47 -15 -80 3 -181 99 -44 42 -271 258 -505 481 -234 223 -718 683
-1077 1022 -549 519 -658 618 -688 624 -20 3 -37 5 -39 3 -4 -5 2453 -3763
2462 -3766 10 -4 2457 3748 2457 3766 0 9 -8 17 -17 19 -11 2 -245 -212 -675
-620z"/>
<path d="M3901 7029 c-113 -22 -251 -119 -308 -217 -124 -211 -58 -501 145
-631 110 -71 262 -94 382 -58 215 63 358 295 321 519 -43 264 -285 437 -540
387z"/>
<path d="M6025 5269 c-1028 -671 -1870 -1225 -1870 -1230 0 -8 3756 -2469
3762 -2465 1 1 -3 21 -9 45 -10 38 -76 112 -546 610 -594 628 -1000 1055
-1379 1447 -143 149 -261 280 -273 304 -26 52 -21 91 19 147 15 21 149 164
297 318 559 582 1855 1950 1867 1971 5 8 7 28 5 44 -3 30 -21 18 -1873 -1191z"/>
<path d="M154 6406 c-3 -9 -4 -22 -1 -28 5 -14 1003 -1073 1626 -1727 491
-515 508 -535 523 -582 19 -66 -6 -101 -279 -386 -248 -259 -717 -753 -1515
-1598 -373 -394 -424 -452 -411 -465 12 -13 18 -13 51 6 40 23 3055 1984 3459
2250 134 87 243 161 243 164 -1 16 -3633 2371 -3667 2378 -15 3 -25 -2 -29
-12z"/>
<path d="M1355 4498 c-186 -35 -345 -201 -378 -393 -49 -289 236 -576 525
-527 175 30 315 147 375 312 30 83 36 148 19 230 -40 189 -196 346 -380 379
-68 13 -92 12 -161 -1z"/>
<path d="M6450 4492 c-261 -68 -415 -344 -331 -595 25 -74 87 -166 147 -216
100 -83 242 -124 359 -104 337 58 505 438 318 720 -69 104 -184 180 -307 202
-78 14 -108 13 -186 -7z"/>
<path d="M2741 1964 c-684 -1048 -1241 -1908 -1238 -1911 4 -3 24 5 46 18 37
22 852 789 1895 1784 243 231 455 430 472 442 46 33 77 37 120 17 21 -10 193
-166 389 -354 193 -184 641 -609 995 -945 355 -335 722 -683 817 -772 94 -90
174 -159 178 -154 17 28 -16 96 -140 284 -72 111 -559 857 -1082 1657 -1148
1759 -1202 1840 -1205 1839 -2 0 -563 -857 -1247 -1905z"/>
<path d="M3848 1891 c-81 -26 -135 -61 -195 -123 -84 -90 -123 -191 -123 -323
0 -125 40 -225 127 -316 171 -180 462 -187 649 -16 212 193 177 571 -66 727
-108 69 -269 90 -392 51z"/>
</g>
</svg>
