<?xml version="1.0" encoding="utf-8"?>
<!-- Generator: Adobe Illustrator 27.8.1, SVG Export Plug-In . SVG Version: 6.00 Build 0)  -->
<svg version="1.1" id="Layer_1" xmlns="http://www.w3.org/2000/svg" xmlns:xlink="http://www.w3.org/1999/xlink" x="0px" y="0px"
	 viewBox="0 0 718 252" style="enable-background:new 0 0 718 252;" xml:space="preserve">
<g>
	<path style="fill:#9EADB2;" d="M369,102.3c0-20.1,0-40.1,0-60.2c0-1.9,0.4-2.5,2.4-2.5c36,0.1,72,0.1,108,0c2.1,0,2.6,0.6,2.6,2.6
		c-0.1,6.8-0.1,13.7,0,20.5c0,1.9-0.5,2.3-2.4,2.3c-26-0.1-52,0-78-0.1c-2.2,0-3,0.4-2.9,2.8c0.2,6.7,0.1,13.3,0,20
		c0,1.9,0.5,2.3,2.4,2.3c26-0.1,52,0,78-0.1c2.2,0,3,0.4,2.9,2.8c-0.2,6.7-0.1,13.5,0,20.2c0,2-0.5,2.5-2.5,2.5
		c-25.9-0.1-51.8,0-77.7-0.1c-2.4,0-3.1,0.5-3,3c0.2,6.4,0.2,12.8,0,19.2c-0.1,2.3,0.7,2.7,2.8,2.7c25.8-0.1,51.7,0,77.5-0.1
		c2.5,0,3,0.7,2.9,3c-0.2,6.7-0.1,13.3,0,20c0,1.9-0.4,2.5-2.4,2.5c-36.1-0.1-72.2-0.1-108.2,0c-1.9,0-2.3-0.5-2.3-2.3
		C369.1,142.9,369.1,122.6,369,102.3C369,102.3,369,102.3,369,102.3z"/>
	<path style="fill:#9EADB2;" d="M127.7,140c7.8-7.1,15.1-13.7,22.4-20.4c3-2.7,6-5.3,8.9-8.1c1.2-1.1,2.4-1.5,4-1.5
		c4.8,0.1,9.7,0,14.5,0c1,0,1.7,0,1.7-1.4c-0.1-8.2,0-16.3,0-24.5c-1.2,0-1.7,0.9-2.3,1.5c-28.6,26-57.2,51.9-85.7,78
		c-1.5,1.3-2.9,1.9-4.8,1.9c-12.7-0.1-25.5,0-38.2,0c-0.8,0-1.6,0-3,0c4.1-3.8,7.7-7.1,11.4-10.5c41.2-37.8,82.3-75.6,123.4-113.4
		c1.6-1.5,3.3-2.2,5.5-2.1c7.2,0.2,14.3,0.1,21.5,0c1.8,0,2.2,0.5,2.2,2.2c0,40.6-0.1,81.1,0,121.7c0,1.8-0.6,2.1-2.2,2.1
		c-8.5-0.1-17-0.1-25.5,0c-1.8,0-2.2-0.5-2.2-2.2c0.1-6.9,0-13.8,0.1-20.7c0-2-0.4-2.6-2.6-2.6c-15.2,0.1-30.3,0.1-45.5,0.1
		C130.3,140,129.4,140,127.7,140z"/>
	<path style="fill:#9EADB2;" d="M233.5,102.5c0-20.2,0-40.3,0-60.5c0-1.9,0.4-2.5,2.4-2.5c26.1,0.1,52.1,0,78.2,0.1
		c18.2,0,34.2,12.4,38.1,29.8c5.9,26.5-15.1,44.8-33.3,46.6c-8.6,0.9-17.1,0.3-25.7,0.4c-9.2,0.1-18.5,0.1-27.7,0
		c-1.9,0-2.4,0.5-2.3,2.3c0.1,14.8,0,29.6,0.1,44.5c0,1.9-0.4,2.4-2.3,2.3c-8.4-0.1-16.8-0.1-25.2,0c-2,0-2.3-0.6-2.3-2.4
		c0.1-10.2,0.1-20.3,0.1-30.5C233.4,122.7,233.4,112.6,233.5,102.5C233.5,102.5,233.5,102.5,233.5,102.5z M290.1,67.4
		c0-0.1,0-0.1,0-0.2c-8.3,0-16.7,0-25,0c-1.5,0-2,0.4-2,2c0.1,5.8,0.1,11.7,0,17.5c0,1.9,0.4,2.4,2.3,2.4c15.4-0.1,30.8,0,46.2,0
		c7,0,11.7-5.1,11.1-12.1c-0.5-5.9-4.3-9.5-10.3-9.5C305.1,67.4,297.6,67.4,290.1,67.4z"/>
	<path style="fill:#9EADB2;" d="M605.8,96c20.7-14.9,41.4-29.7,62.2-44.6c0.3,0.1,0.5,0.1,0.8,0.2c0,6.9,0,13.8,0,20.7
		c0,1.7-0.4,2.7-1.8,3.7c-11.2,8.2-22.3,16.6-33.5,24.8c-1.9,1.4-1.7,1.9,0,3.2c11.2,8.5,22.3,17.1,33.5,25.7c1.3,1,1.8,1.9,1.8,3.5
		c-0.1,7.3-0.1,14.7-0.1,22c-0.4,0-0.7,0.1-1.1,0.1c-0.2-0.6-0.5-0.9-1.1-1.1c-7.5-5.6-15-11.2-22.5-16.8c-12-8.9-24-17.8-36-26.7
		c-0.7-0.5-1.4-0.9-2.1-1.4C605.9,105,605.8,100.5,605.8,96z"/>
	<path style="fill:#9EADB2;" d="M562.9,98.5c0,2.8-0.2,5.7,0,8.5c0.1,1.7-0.4,2.6-1.7,3.5c-19.5,14.3-38.9,28.7-58.4,43.1
		c-0.5,0.4-1,0.8-1.6,1.2c-0.5,0.1-0.9,0.2-1.4,0.3c0-7.2,0-14.5,0-21.7c0-1.7,0.5-2.7,1.8-3.7c11.2-8.5,22.3-17.1,33.5-25.7
		c1.6-1.2,1.7-1.8,0-3.1c-11.2-8.2-22.3-16.6-33.5-24.8c-1.2-0.9-1.9-1.8-1.8-3.5c0.1-7.1,0-14.1,0-21.1c0.7-0.3,1,0,1.3,0.3
		c20.5,14.7,41,29.4,61.5,44.1C562.7,96.9,562.4,97.7,562.9,98.5z"/>
	<path style="fill:#9EADB2;" d="M655.6,40.1c-16.1,10.6-32.3,21.2-48.4,31.8c-7,4.6-14,9.1-20.9,13.7c-1.5,1-2.4,1-3.9,0
		c-23-15.1-46-30-69-45c0-0.3,0-0.6,0.1-0.9c12.2,0,24.5,0,36.7,0c1.3,0,2.3,0.3,3.4,1.1c9.5,7.3,19.1,14.4,28.6,21.8
		c1.6,1.2,2.5,1.1,4.1,0c9.9-7.3,20-14.5,29.9-21.7c1-0.7,1.9-1.2,3.2-1.1c12,0,24,0,36,0.1C655.5,39.8,655.6,39.9,655.6,40.1z"/>
	<path style="fill:#9EADB2;" d="M655.9,165.4c-6.7,0.1-13.3,0.1-20,0.2c-5.4,0-10.8,0-16.2,0c-1.4,0-2.5-0.4-3.7-1.2
		c-9.9-7.2-19.8-14.3-29.7-21.6c-1.7-1.3-2.7-1.1-4.2,0.1c-9.4,7.2-18.8,14.3-28.2,21.5c-0.9,0.7-1.7,1.2-2.9,1.2
		c-12.5-0.1-25,0-37.5,0c-0.2,0-0.4-0.1-1-0.2c3.1-2.1,6-4,8.9-5.8c20.2-13.2,40.4-26.3,60.6-39.6c1.8-1.2,3-1.2,4.8,0
		c23,15.1,46.1,30.2,69.1,45.3c0,0-0.1,0.1-0.1,0.1L655.9,165.4z"/>
	<path style="fill:#9EADB2;" d="M390.9,214.8c3.7,3.4,7.1,6.5,10.4,9.5c1.2,1.1,1.8-0.1,2.4-0.7c8-7.4,15.9-14.9,23.9-22.4
		c4.6-4.3,9.2-8.7,13.7-13.2c1.3-1.3,2.6-2.1,4.5-1.9c2.3,0.2,5.3-0.9,6.8,0.4c1.5,1.4,0.4,4.4,0.4,6.7c0.1,10.4,0,20.8,0.1,31.2
		c0,1.8-0.3,2.4-2.3,2.4c-5.8-0.1-5.8,0-5.8-5.8c0-3.4,0-3.4-3.5-3.4c-5.8,0-11.7,0-17.5,0c-1.3,0-2.3,0.4-3.3,1.3
		c-2.8,2.7-5.2,6.2-8.5,7.5c-3.2,1.3-7.4,0-11.1,0.4c-6.6,0.8-11.6-1.2-16.1-6.1c-3.7-4-8.1-7.5-12.2-11.1c-0.8-0.7-1.4-1.5-1.1-2.6
		c0.4-1.3,1.6-0.7,2.3-0.7c5.7-0.1,11.3,0,17,0c3.6,0,4.9-1.3,4.9-5c0-1.1,0.1-2.2,0-3.2c-0.3-2.3-1.6-3.7-3.9-3.7
		c-8.9-0.1-17.8,0-26.7-0.1c-1.9,0-1.6,1.2-1.6,2.3c0,9.2-0.1,18.3,0,27.5c0,2-0.4,2.7-2.6,2.7c-5.5-0.1-5.5,0-5.5-5.6
		c0-10.9,0.1-21.8-0.1-32.7c0-2,0.6-2.4,2.5-2.4c11,0.1,22,0,33,0c8,0,13.1,5.1,13.1,13.1c0,1.8,0.1,3.7-0.2,5.5
		C402.5,210.9,398.4,214.1,390.9,214.8z M430.3,209.9c0.1,0.2,0.2,0.4,0.3,0.6c4.3,0,8.6,0,12.9,0c0.7,0,1.4,0,1.4-1
		c0-4.3,0-8.5,0-13.4C439.7,201,435,205.4,430.3,209.9z"/>
	<path style="fill:#9EADB2;" d="M324.9,226.9c-6.6,0-13.2-0.1-19.7,0c-1.7,0-2.5-0.3-2.5-2.3c0.1-12.1,0.1-24.1,0-36.2
		c0-1.7,0.4-2.3,2.2-2.3c13.4,0.1,26.8,0.1,40.2,0c1.7,0,2.3,0.4,2.3,2.2c0,6.2,0,6.2-6,6.2c-9.4,0-18.8,0-28.2,0
		c-1.7,0-2.3,0.3-2.3,2.2c0,5.9,0,5.9,5.8,5.9c9.5,0,19,0,28.5,0c1.7,0,2.3,0.3,2.3,2.2c0,6.1,0,6.1-6.1,6.1c-9.4,0-18.8,0-28.2,0
		c-1.8,0-2.2,0.5-2.2,2.2c0,5.8,0,5.8,5.8,5.8c9.4,0,18.8,0,28.2,0c1.7,0,2.5,0.3,2.4,2.3c-0.1,5.9,0,5.9-6,5.9
		C335.9,226.9,330.4,226.9,324.9,226.9z"/>
	<path style="fill:#9EADB2;" d="M224.6,186.1c6.7,0,13.3,0,20,0c1.6,0,2.3,0.2,2.3,2.1c0,6.2,0.1,6.2-6.2,6.2c-9.4,0-18.8,0-28.2,0
		c-1.6,0-2.1,0.4-2.1,2.1c0,6-0.1,6,5.9,6c9.5,0,19,0,28.5,0c1.5,0,2.2,0.3,2.2,2c0,6.2,0.1,6.2-6.2,6.2c-9.4,0-18.8,0-28.2,0
		c-1.6,0-2.1,0.3-2.1,2c0,6-0.1,6,6.1,6c9.3,0,18.7,0,28,0c1.7,0,2.5,0.2,2.5,2.2c-0.1,5.9,0,5.9-6,5.9c-12.1,0-24.2,0-36.2,0
		c-2,0-2.5-0.5-2.5-2.5c0.1-12,0.1-24,0-36c0-1.9,0.6-2.4,2.4-2.3C211.3,186.2,218,186.1,224.6,186.1z"/>
	<path style="fill:#9EADB2;" d="M650,226.9c-5.1,0-10.2-0.1-15.2,0c-1.7,0-2.1-0.5-2.1-2.1c0-6.1-0.1-6.1,5.8-6.1
		c8.2,0,16.3,0,24.5,0c0.8,0,1.7,0,2.5-0.1c2.2-0.3,3.8-2,3.7-4c0-2.2-1.8-3.9-4.3-3.9c-6.6,0-13.2,0-19.7,0c-2.2,0-4.5,0.3-6.7-0.3
		c-6.4-1.5-10.1-6.7-9.5-13.5c0.4-5.6,5.6-10.6,11.7-10.7c10.3-0.2,20.7,0,31-0.1c1.3,0,1.7,0.4,1.8,1.7c0.3,6.7,0.4,6.7-6.2,6.7
		c-8.6,0-17.2,0-25.7,0c-2.4,0-4,1.3-4.3,3.3c-0.3,2.2,0.7,3.7,2.8,4.4c0.8,0.3,1.6,0.2,2.5,0.2c7.5,0,15,0,22.5,0
		c7.1,0,12.6,5.3,12.6,12.1c0.1,6.9-5.4,12.3-12.7,12.3C659.8,226.9,654.9,226.9,650,226.9z"/>
	<path style="fill:#9EADB2;" d="M607.4,214.6c4.6,4.3,8.7,8,13.4,12.3c-4.4,0-8,0-11.6,0c-0.7,0-1.2-0.5-1.7-0.9
		c-6-5.4-12-10.8-18-16.2c-0.8-0.7-1.5-1.4-1.2-2.5c0.4-1.3,1.6-0.7,2.4-0.7c5.7-0.1,11.5,0,17.2,0c3.3,0,4.6-1.4,4.7-4.7
		c0-0.8,0-1.7,0-2.5c0-3.3-1.4-4.8-4.6-4.8c-8.5,0-17,0-25.5-0.1c-1.7,0-2,0.6-2,2.1c0.1,9.3,0,18.7,0.1,28c0,1.9-0.5,2.4-2.4,2.4
		c-6-0.1-6,0-6-5.9c0-10.8,0-21.7,0-32.5c0-1.9,0.5-2.4,2.4-2.4c11.2,0.1,22.5,0,33.7,0.1c7.4,0,12.5,5.2,12.6,12.6c0,1-0.1,2,0,3
		C621.2,208.5,615.6,215.1,607.4,214.6z"/>
	<path style="fill:#9EADB2;" d="M539.8,226.8c-3.9,0-7.8,0-11.7,0c-7.2,0-12.5-5.3-12.5-12.4c0-5.2,0-10.5,0-15.7
		c0.1-7.1,5.4-12.5,12.5-12.5c7.9-0.1,15.8-0.1,23.7,0c7,0.1,12.2,5.2,12.3,12.1c0.1,5.6,0.1,11.2,0,16.7c-0.1,6.7-5.3,11.7-12,11.8
		C547.9,226.9,543.9,226.8,539.8,226.8z M539.8,194.5c-3.8,0-7.6,0-11.5,0c-3.1,0-4.5,1.4-4.6,4.6c0,5,0,10,0,15
		c0,3.1,1.3,4.6,4.3,4.6c7.9,0.1,15.8,0.1,23.7,0c2.8,0,4.2-1.6,4.2-4.5c0-5,0-10,0-15c0-3.4-1.4-4.7-4.9-4.8
		C547.3,194.5,543.6,194.5,539.8,194.5z"/>
	<path style="fill:#9EADB2;" d="M36.6,226.6c4.4-4.2,8.6-8,12.7-11.9c9.5-9.1,19.1-18.1,28.5-27.3c1.4-1.4,2.9-1.4,4.5-1.3
		c2.1,0.1,4.9-0.9,6.3,0.4c1.4,1.3,0.4,4.1,0.4,6.2c0,10.6,0,21.2,0.1,31.7c0,1.9-0.5,2.4-2.4,2.4c-5.9-0.1-5.9,0-5.9-6
		c0-3.6,0.4-3.2-3.2-3.2c-5.8,0-11.7,0-17.5,0c-1.4,0-2.6,0.3-3.5,1.4c-0.5,0.6-1.2,1.1-1.8,1.7C47.6,227.7,47.6,227.7,36.6,226.6z
		 M66.4,209.9c0.1,0.2,0.2,0.4,0.3,0.6c4.4,0,8.7,0,13.1,0c0.7,0,1.1-0.3,1.1-1c0-4.2,0-8.4,0-13.2C75.7,201.1,71,205.5,66.4,209.9z
		"/>
	<path style="fill:#9EADB2;" d="M124.3,226.9c-4.9,0-9.8,0-14.7,0c-7.2,0-12.4-5.2-12.4-12.5c0-5.2,0-10.5,0-15.7
		c0-7.1,5.3-12.4,12.5-12.5c10-0.1,20,0,30-0.1c1.8,0,2.2,0.5,2.2,2.2c0,6.1,0,6.1-6,6.1c-8.5,0-17,0-25.5,0c-3.7,0-5.1,1.4-5.1,5.2
		c0,4.6,0,9.2,0,13.7c0,3.9,1.3,5.3,5.2,5.3c9.7,0,19.3,0.1,29,0c1.8,0,2.4,0.4,2.4,2.3c-0.1,5.9,0,5.9-5.8,5.9
		C132.1,226.9,128.2,226.9,124.3,226.9z"/>
	<path style="fill:#9EADB2;" d="M176.5,226.9c-4.8,0-9.7,0-14.5,0c-6.9,0-12.2-5.1-12.4-12.1c-0.1-5.5-0.1-11,0-16.5
		c0.2-6.9,5.4-12.1,12.4-12.1c10.1-0.1,20.2,0,30.2-0.1c1.5,0,1.9,0.4,2,2c0.1,6.4,0.1,6.4-6.2,6.4c-8.4,0-16.8,0-25.2,0
		c-3.6,0-4.8,1.3-4.8,4.8c0,4.9,0,9.8,0,14.7c0,3.4,1.3,4.7,4.9,4.7c9.7,0,19.3,0.1,29,0c1.8,0,2.4,0.3,2.4,2.3
		c-0.1,5.9,0,5.9-6,5.9C184.4,226.9,180.4,226.9,176.5,226.9z"/>
	<path style="fill:#9EADB2;" d="M484.5,186.1c7.4,0,14.8,0,22.2,0c1.7,0,2.1,0.5,2.1,2.1c0,6.2,0.1,6.2-6.2,6.2
		c-3.9,0-7.8,0.1-11.7,0c-1.9-0.1-2.5,0.4-2.5,2.4c0.1,9.1,0,18.1,0.1,27.2c0,2.1-0.3,2.9-2.7,2.8c-5.4-0.2-5.4,0-5.4-5.5
		c0-8.2-0.1-16.5,0-24.7c0-1.9-0.5-2.4-2.4-2.3c-5.2,0.1-10.5,0-15.7,0.1c-1.6,0-2.3-0.3-2.3-2.1c0-6.2-0.1-6.2,6.2-6.2
		C472.4,186.1,478.4,186.1,484.5,186.1z"/>
	<path style="fill:#9EADB2;" d="M254.9,206.2c0-6,0-12,0-18c0-1.6,0.4-2.1,2.1-2.1c6.1,0,6.1-0.1,6.1,5.9c0,7.9,0.1,15.8-0.1,23.7
		c0,2.3,0.5,3.1,3,3.1c9-0.2,18,0,27-0.1c1.8,0,2.6,0.2,2.6,2.4c-0.1,5.8,0,5.8-5.9,5.8c-10.8,0-21.6,0-32.5,0
		c-1.7,0-2.3-0.4-2.3-2.2C254.9,218.5,254.9,212.4,254.9,206.2z"/>
	<path style="fill:#9EADB2;" d="M584.2,115.4c-2.7,0-6,0.9-8.1-0.3c-2.1-1.2-2-4.8-2.9-7.4c-2.9-8.3-2.9-8.3,4.3-13.3
		c1.7-1.2,3.4-2.4,5-3.7c1.1-0.9,2.1-1,3.3-0.1c3.5,2.6,7,5.1,10.5,7.6c1.1,0.8,1.5,1.6,1.1,2.9c-1.4,4.3-2.8,8.7-4.2,13.1
		c-0.3,1-1,1.4-2.1,1.3c-2.3-0.1-4.7,0-7,0C584.2,115.5,584.2,115.5,584.2,115.4z"/>
	<path style="fill:#9EADB2;" d="M668.7,51.7c-0.3-0.1-0.5-0.1-0.8-0.2c0.2-1.1-0.7-1.6-1.3-2.2c-2.7-2.5-5.4-5-8.1-7.5
		c-0.6-0.5-1.3-1-1.6-2.2c3.7,0,7.3,0,10.8,0c1.1,0,1.1,0.8,1.1,1.6C668.8,44.7,668.8,48.2,668.7,51.7z"/>
	<path style="fill:#9EADB2;" d="M655.9,165.4l-0.1-0.1c0,0,0.1-0.1,0.1-0.1c4.1-2.3,7.1-6,10.6-9.2c0.4-0.2,0.8-0.3,1.2-0.5
		c0.4,0,0.7-0.1,1.1-0.1c0,2.9,0,5.8,0.1,8.6c0,1.2-0.4,1.6-1.6,1.6C663.5,165.4,659.7,165.4,655.9,165.4z"/>
	<path style="fill:#9EADB2;" d="M499.9,50.2c0-3.1,0-6.1,0-9.2c0-1,0.4-1.5,1.5-1.5c3.3,0,6.6,0,9.9,0c0.1,0.2,0.2,0.4,0.3,0.6
		c-3.7,3.4-7.4,6.9-11.1,10.3C500.3,50.4,500.1,50.3,499.9,50.2z"/>
	<path style="fill:#9EADB2;" d="M499.9,155.2c0.5-0.1,0.9-0.2,1.4-0.3c2.4,3.3,5.8,5.6,8.6,8.5c0.6,0.6,1.2,1.1,2.4,2.2
		c-4.2,0-7.8,0-11.3,0c-1.1,0-1-0.9-1-1.6C499.9,161,499.9,158.1,499.9,155.2z"/>
	<path style="fill:#9EADB2;" d="M513.5,39.6c0,0.3,0,0.6-0.1,0.9c-0.5,0-0.9-0.2-0.9-0.7C512.6,39.3,513.1,39.5,513.5,39.6z"/>
	<path style="fill:#9EADB2;" d="M655.6,40.1c-0.1-0.2-0.1-0.3-0.2-0.5c0.2-0.1,0.5-0.1,0.5,0.2C655.9,39.9,655.7,40,655.6,40.1z"/>
</g>
</svg>
