<?xml version="1.0" encoding="utf-8"?>
<!-- Generator: Adobe Illustrator 27.8.1, SVG Export Plug-In . SVG Version: 6.00 Build 0)  -->
<svg version="1.1" id="Layer_1" xmlns="http://www.w3.org/2000/svg" xmlns:xlink="http://www.w3.org/1999/xlink" x="0px" y="0px"
	 viewBox="0 0 294.6 210" style="enable-background:new 0 0 294.6 210;" xml:space="preserve">
<style type="text/css">
	.st0{fill:#9EADB2;}
</style>
<path class="st0" d="M56.4,127.7L87,45.8h45.5l-30.7,81.9H56.4z"/>
<path class="st0" d="M155.3,27.6l-10.9,28.9l22.7,60.7l33.6-89.6L155.3,27.6z"/>
<path class="st0" d="M136.4,56.2l-22.7,60.7l4,10.7h45.5L136.4,56.2z"/>
<path class="st0" d="M240.6,0l-21.2,56.5l22.8,60.7L286.1,0H240.6z"/>
<path class="st0" d="M192.8,127.6h45.5L204.7,38l-22.8,60.7L192.8,127.6z"/>
<path class="st0" d="M1.8,204.1c-0.1,1,0.1,2,0.6,2.9c0.6,0.8,1.6,1.2,2.6,1.2c1,0,1.9-0.4,2.5-1.1c0.7-0.8,0.6-2,0.6-3v-7.7h1.4
	v8.1c0.1,1.3-0.2,2.6-1.1,3.6c-0.9,1-2.2,1.5-3.5,1.5c-1.3,0-2.5-0.5-3.4-1.3c-0.9-1-1.4-2.3-1.3-3.7v-8.1h1.4v7.6H1.8z"/>
<path class="st0" d="M15.3,208.6c0,0.6-0.4,1-1,1s-1-0.4-1-1c0-0.5,0.4-0.9,0.9-0.9c0,0,0,0,0.1,0c0.5-0.1,0.9,0.3,1,0.7
	C15.3,208.5,15.3,208.5,15.3,208.6z"/>
<path class="st0" d="M25,198.9c-0.4-0.9-1.2-1.4-2.2-1.4c-1.1,0-2.1,0.8-2.1,2c0,0,0,0,0,0c0,1.1,1.2,1.6,2,2l0.9,0.4
	c1.7,0.7,3.1,1.6,3.1,3.6c0,2.2-1.7,4-3.9,4c-0.1,0-0.1,0-0.2,0c-2,0.1-3.7-1.3-4-3.3l1.4-0.4c0.1,1.3,1.3,2.4,2.6,2.4
	c1.4,0,2.6-1.1,2.7-2.5c0-1.5-1.2-2-2.4-2.6l-0.8-0.3c-1.5-0.7-2.8-1.5-2.8-3.3c0.1-1.9,1.6-3.4,3.5-3.3c0,0,0.1,0,0.1,0
	c1.4,0,2.7,0.7,3.4,2L25,198.9z"/>
<path class="st0" d="M31.9,208.6c0,0.6-0.4,1-1,1s-1-0.4-1-1c0-0.5,0.4-0.9,0.9-0.9c0,0,0,0,0.1,0c0.5-0.1,0.9,0.3,1,0.7
	C31.9,208.5,31.9,208.5,31.9,208.6z"/>
<path class="st0" d="M41.9,196.4h2.4c1.8-0.1,3.6,0.4,5,1.6c2.7,2.4,2.9,6.5,0.5,9.2c-0.1,0.2-0.3,0.3-0.4,0.5
	c-1.5,1.4-3.1,1.6-5.1,1.6h-2.4V196.4z M44.4,208c1.5,0.1,3-0.3,4.1-1.3c1-1,1.6-2.4,1.6-3.8c0-1.5-0.6-2.9-1.7-3.9
	c-1.1-0.9-2.6-1.3-4-1.2h-1v10.3h1L44.4,208z"/>
<path class="st0" d="M54.4,196.4h6.7v1.3h-5.3v3.8h5.1v1.3h-5.1v5.1h5.3v1.3h-6.7V196.4z"/>
<path class="st0" d="M65.8,209.3h-1.4v-12.9h2.1c1.1-0.1,2.2,0.1,3.2,0.7c0.9,0.7,1.5,1.7,1.5,2.9c0,1.1-0.4,2.1-1.2,2.8
	c-0.9,0.6-2,1-3.1,0.9h-1.1V209.3z M65.8,202.3h1c1.6,0,2.9-0.5,2.9-2.3c0-2.1-1.7-2.3-3.4-2.3h-0.5V202.3z"/>
<path class="st0" d="M75.8,205.7l-1.6,3.7h-1.6l6-13.6l5.8,13.6h-1.6l-1.5-3.7H75.8z M78.6,199.1l-2.2,5.2h4.4L78.6,199.1z"/>
<path class="st0" d="M88.1,209.3h-1.4v-12.9h1.9c2.5,0,4.7,0.7,4.7,3.6c0.1,1.9-1.3,3.5-3.2,3.6l4.1,5.8h-1.8l-3.9-5.7h-0.4
	L88.1,209.3z M88.1,202.4h0.4c1.6,0,3.3-0.3,3.3-2.3c0-2.1-1.6-2.3-3.3-2.3h-0.4V202.4z"/>
<path class="st0" d="M100.3,209.3h-1.4v-11.6h-3.1v-1.3h7.7v1.3h-3.2V209.3z"/>
<path class="st0" d="M107.4,195.7l4.7,10.9l4.7-10.9l2.6,13.7h-1.5l-1.7-8.7L112,210l-4.1-9.3l-1.7,8.7h-1.5L107.4,195.7z"/>
<path class="st0" d="M122,196.4h6.7v1.3h-5.3v3.8h5.1v1.3h-5.1v5.1h5.3v1.3H122V196.4z"/>
<path class="st0" d="M132.1,195.8l10.1,10.6v-10h1.4v13.5l-10.1-10.5v10h-1.4V195.8z"/>
<path class="st0" d="M150.6,209.3h-1.5v-11.6H146v-1.3h7.7v1.3h-3.2v11.6H150.6z"/>
<path class="st0" d="M175,202.9c0,3.7-3,6.8-6.7,6.8s-6.8-3-6.8-6.7s3-6.8,6.7-6.8c0,0,0.1,0,0.1,0C172,196.2,175,199.2,175,202.9z
	 M163,202.9c0,2.9,2.4,5.3,5.3,5.4c3,0,5.3-2.4,5.3-5.4c0-2.9-2.3-5.3-5.2-5.3c0,0,0,0-0.1,0c-2.8-0.1-5.2,2.2-5.3,5
	C163,202.7,163,202.8,163,202.9z"/>
<path class="st0" d="M179.3,197.7v3.8h4.3v1.3h-4.3v6.4h-1.4v-12.9h5.9v1.3L179.3,197.7L179.3,197.7z"/>
<path class="st0" d="M202.9,199.2c-1-1.1-2.4-1.7-3.9-1.7c-3,0.1-5.3,2.5-5.2,5.5c0.1,2.8,2.4,5.1,5.2,5.2c1.5,0,2.9-0.6,3.9-1.7
	v1.8c-1.1,0.8-2.5,1.3-3.9,1.3c-3.7,0-6.7-2.9-6.7-6.6c0-3.7,2.9-6.7,6.6-6.7c0,0,0.1,0,0.1,0c1.4,0,2.8,0.4,3.9,1.3V199.2z"/>
<path class="st0" d="M219,202.9c0,3.7-3,6.7-6.7,6.7s-6.7-3-6.7-6.7s3-6.7,6.7-6.7l0,0C216,196.2,219,199.2,219,202.9z M207,202.9
	c0,2.9,2.4,5.3,5.3,5.4c3,0,5.3-2.4,5.3-5.4c0-2.9-2.3-5.3-5.2-5.3c0,0,0,0-0.1,0c-2.8-0.1-5.2,2.2-5.3,5
	C207,202.7,207,202.8,207,202.9z"/>
<path class="st0" d="M223.5,195.7l4.7,10.9l4.7-10.9l2.6,13.7H234l-1.7-8.7l-4.2,9.3l-4.1-9.3l-1.7,8.7h-1.5L223.5,195.7z"/>
<path class="st0" d="M239.7,195.7l4.7,10.9l4.7-10.9l2.6,13.7h-1.4l-1.7-8.7l-4.2,9.3l-4.2-9.3l-1.7,8.7H237L239.7,195.7z"/>
<path class="st0" d="M254.3,196.4h6.7v1.3h-5.3v3.8h5.1v1.3h-5.1v5.1h5.3v1.3h-6.7L254.3,196.4z"/>
<path class="st0" d="M265.7,209.3h-1.4v-12.9h1.9c2.5,0,4.7,0.7,4.7,3.6c0.1,1.9-1.3,3.5-3.1,3.6c0,0,0,0-0.1,0l4.1,5.8H270
	l-3.9-5.7h-0.4L265.7,209.3z M265.7,202.4h0.4c1.6,0,3.3-0.3,3.3-2.3c0-2.1-1.6-2.3-3.3-2.3h-0.4V202.4z"/>
<path class="st0" d="M284.3,199.2c-1-1.1-2.4-1.7-3.9-1.7c-3,0.1-5.3,2.5-5.2,5.5c0.1,2.8,2.4,5.1,5.2,5.2c1.5,0,2.9-0.6,3.9-1.7
	v1.8c-3,2.2-7.1,1.6-9.3-1.4c-2.2-3-1.6-7.1,1.4-9.3c1.2-0.9,2.6-1.3,4-1.3c1.4,0,2.8,0.4,3.9,1.3V199.2z"/>
<path class="st0" d="M287.6,196.4h6.7v1.3H289v3.8h5.1v1.3H289v5.1h5.3v1.3h-6.7V196.4z"/>
<path class="st0" d="M39.1,149.9l-4.8,13.3h-1.4l-4.6-13.3l-1.9,13h-4.1l3.5-21.5h2.9l5.2,13.8l4.9-13.8h2.9l3.1,21.5h-4.1
	L39.1,149.9z"/>
<path class="st0" d="M50.8,163.2h-4.2v-21.7h4.2V163.2z"/>
<path class="st0" d="M53.8,141.5h2.9L67.6,156h0.1v-14.5h4v21.7h-2.9l-10.9-14.5h-0.1v14.1h-4L53.8,141.5z"/>
<path class="st0" d="M84.1,163.2c-6.3,0-10.2-4.8-10.2-10.9c0-6.1,4-10.8,10.2-10.8s10.2,4.7,10.2,10.8S90.4,163.2,84.1,163.2z
	 M84.1,145.4c-3.8,0-6,3.4-6,6.7c0,3.2,1.6,7.1,6,7.1c4.5,0,6-3.9,6-7.1C90.1,148.8,87.9,145.4,84.1,145.4z"/>
<path class="st0" d="M110.8,163.2h-5.1l-5.3-8.8h-0.1v8.8h-4.2v-21.7h5.7c4.3,0,7.3,1.9,7.3,6.5c0,2.8-1.5,5.5-4.4,6L110.8,163.2z
	 M100.3,151.5h0.5c2.3,0,4-0.7,4-3.3c0-2.7-1.7-3.2-3.9-3.2h-0.6V151.5z"/>
<path class="st0" d="M116,163.2h-4.2v-21.7h4.2V163.2z"/>
<path class="st0" d="M125.8,163.2h-4.2v-18h-4.4v-3.7h13v3.7h-4.4L125.8,163.2z"/>
<path class="st0" d="M129.1,141.5h4.9l3.8,7.6l4.1-7.6h5l-6.9,11.8v10h-4.2v-10L129.1,141.5z"/>
<path class="st0" d="M155.4,141.5h5.3c4,0,6.5,1.6,6.5,5.9c0.1,1.6-0.6,3.2-1.9,4.2c2.6,0.5,3.7,3.1,3.7,5.4c0,4.3-3,6.2-6.9,6.2
	h-6.6v-21.7L155.4,141.5z M159.6,150.5h0.5c2,0,3.1-0.6,3.1-2.8c0-2.2-1.3-2.8-3.1-2.8h-0.5V150.5z M159.6,159.8h0.9
	c2.3,0,4.2-0.3,4.2-3.1c0-2.8-2.3-2.9-4.4-2.9h-0.7V159.8z"/>
<path class="st0" d="M170.8,141.5h4.1v11.9c0,2.6,0.2,6.3,3.7,6.3s3.7-3.7,3.7-6.3v-11.9h4.1v12.7c0,5.2-2.2,9.1-7.9,9.1
	s-7.8-3.9-7.8-9.1L170.8,141.5L170.8,141.5z"/>
<path class="st0" d="M199,146.5c-0.7-1-1.9-1.7-3.1-1.7c-1.3,0-2.4,1-2.5,2.3c0,3.5,8.2,2,8.2,8.9c0,4.1-2.6,7-6.8,7
	c-2.7-0.1-5.1-1.6-6.3-4l2.6-2.5c0.5,1.7,2,2.9,3.7,3c1.6-0.1,2.8-1.4,2.7-2.9c0,0,0,0,0-0.1c0-2.1-2-2.7-3.6-3.4
	c-2.7-1.1-4.6-2.4-4.6-5.6c-0.1-3.3,2.5-6.1,5.8-6.2c0.1,0,0.1,0,0.2,0c2.1,0,4.1,0.9,5.6,2.3L199,146.5z"/>
<path class="st0" d="M208,163.2h-4.2v-21.7h4.2V163.2z"/>
<path class="st0" d="M210.9,141.5h2.9l10.9,14.5h0.1v-14.5h4v21.7h-2.9L215,148.7h-0.1v14.1h-4V141.5z"/>
<path class="st0" d="M235.9,145.2v4.8h6.8v3.7h-6.8v5.9h7v3.7h-11.2v-21.8h11.2v3.7H235.9z"/>
<path class="st0" d="M255.2,146.5c-0.7-1-1.8-1.7-3.1-1.7c-1.3,0-2.4,1-2.5,2.3c0,3.5,8.2,2,8.2,8.9c0,4.1-2.6,7-6.8,7
	c-2.9,0-4.9-1.6-6.3-4l2.6-2.5c0.5,1.7,2,2.9,3.7,3c1.5-0.1,2.7-1.4,2.6-2.9c0,0,0-0.1,0-0.1c0-2.1-2-2.7-3.6-3.4
	c-2.7-1.1-4.6-2.4-4.6-5.6c-0.1-3.3,2.5-6.1,5.8-6.2c0.1,0,0.1,0,0.2,0c2.1,0,4.1,0.9,5.6,2.3L255.2,146.5z"/>
<path class="st0" d="M269.8,146.5c-0.7-1-1.8-1.7-3.1-1.7c-1.3,0-2.4,1-2.5,2.3c0,3.5,8.2,2,8.2,8.9c0,4.1-2.6,7-6.8,7
	c-2.7-0.1-5.1-1.6-6.3-4l2.6-2.5c0.5,1.7,2,2.9,3.7,3c1.6-0.1,2.8-1.4,2.7-2.9c0,0,0,0,0-0.1c0-2.1-2-2.7-3.6-3.4
	c-2.7-1.1-4.6-2.4-4.6-5.6c-0.1-3.3,2.5-6.1,5.8-6.2c0.1,0,0.1,0,0.2,0c2.1,0,4.1,0.9,5.6,2.3L269.8,146.5z"/>
<path class="st0" d="M0,167.6h6c6.3,0,10.5,4.7,10.5,10.9c0,6.1-4.3,10.8-10.5,10.8H0V167.6z M4.3,185.6H5c5.2,0,7.2-2.9,7.2-7.2
	c0-4.7-2.4-7.2-7.2-7.2H4.3V185.6z"/>
<path class="st0" d="M22.3,171.3v4.8H29v3.7h-6.7v5.9h7v3.7H18v-21.7h11.3v3.7h-7V171.3z"/>
<path class="st0" d="M39.3,181.8l4.8-14.2h4.4l-8.2,21.7h-2.4l-8.1-21.7h4.4L39.3,181.8z"/>
<path class="st0" d="M53.5,171.3v4.8h6.8v3.7h-6.7v5.9h7v3.7H49.3v-21.7h11.2v3.7h-7V171.3z"/>
<path class="st0" d="M67,185.6h6v3.7H62.8v-21.7H67V185.6z"/>
<path class="st0" d="M83.5,189.3c-6.3,0-10.2-4.8-10.2-10.9c0-6.1,4-10.8,10.2-10.8c6.1,0,10.2,4.7,10.2,10.8S89.8,189.3,83.5,189.3
	z M83.5,171.6c-3.8,0-6,3.4-6,6.7c0,3.2,1.6,7.1,6,7.1c4.5,0,6-3.9,6-7.1C89.5,174.9,87.3,171.6,83.5,171.6z"/>
<path class="st0" d="M99.8,189.3h-4.2v-21.7h5.7c4.6,0,7.5,1.8,7.5,6.7c0,4.6-2.5,6.9-7,6.9h-2.1L99.8,189.3L99.8,189.3z
	 M99.8,177.7h0.9c2.5,0,3.9-0.5,3.9-3.4c0-2.8-1.6-3.2-4-3.2h-0.7v6.6L99.8,177.7z"/>
<path class="st0" d="M126,176.1l-4.8,13.2h-1.4l-4.6-13.2l-1.9,13h-4.1l3.5-21.4h2.9l5.2,13.8l4.9-13.8h2.9l3.1,21.4h-4.1L126,176.1
	z"/>
<path class="st0" d="M137.6,171.3v4.8h6.7v3.7h-6.7v5.9h7v3.7h-11.2v-21.7h11.2v3.7h-7V171.3z"/>
<path class="st0" d="M147.2,167.6h2.9l10.9,14.5h0.1v-14.5h4v21.7h-2.9l-10.9-14.5h-0.1v14.1h-4V167.6z"/>
<path class="st0" d="M175,189.3h-4.2v-18h-4.4v-3.7h13v3.7H175L175,189.3z"/>
<path class="st0" d="M192.9,184.9l-1.7,4.4h-4.4l8.3-21.7h3.2l8,21.7h-4.4l-1.6-4.4H192.9z M196.4,173.8l-2.4,7.7h5L196.4,173.8z"/>
<path class="st0" d="M225.7,177.8v0.5c0,5.8-3,11-9.4,11c-6,0-9.8-5.1-9.8-10.8c0-5.9,3.9-11,10.1-11c3.4-0.1,6.6,1.8,8.1,4.9
	l-3.6,1.9c-0.8-1.9-2.6-3.2-4.7-3.3c-3.9,0-5.8,4-5.8,7.4s1.9,7.2,5.8,7.2c2.6-0.1,4.6-2.1,4.7-4.7h-4.4v-3.3h9L225.7,177.8z"/>
<path class="st0" d="M231.9,171.3v4.8h6.7v3.7h-6.7v5.9h7v3.7h-11.2v-21.7h11.2v3.7h-7V171.3z"/>
<path class="st0" d="M241.4,167.6h2.9l10.9,14.5v-14.5h4.1v21.7h-2.9l-10.9-14.5h-0.1v14.1h-4V167.6z"/>
<path class="st0" d="M276.3,173.6c-1.1-1.4-2.7-2.2-4.5-2.2c-3.9,0-6.1,3.5-6.1,7.1c0,3.5,2.3,6.9,6,6.9c1.8-0.1,3.4-0.9,4.6-2.2
	v4.8c-1.5,0.7-3.1,1.2-4.7,1.2c-5.8,0-10.1-5-10.1-10.7c0-5.8,4.1-11,10.2-11c1.6,0,3.2,0.4,4.6,1.2V173.6z"/>
<path class="st0" d="M276.8,167.6h4.9l3.8,7.6l4.2-7.6h4.9l-6.9,11.8v10h-4.2v-10L276.8,167.6z"/>
</svg>
