<?xml version="1.0" encoding="utf-8"?>
<!-- Generator: Adobe Illustrator 27.8.1, SVG Export Plug-In . SVG Version: 6.00 Build 0)  -->
<svg version="1.1" id="Layer_1" xmlns="http://www.w3.org/2000/svg" xmlns:xlink="http://www.w3.org/1999/xlink" x="0px" y="0px"
	 viewBox="0 0 175 66" style="enable-background:new 0 0 175 66;" xml:space="preserve">
<style type="text/css">
	.st0{fill:#9EADB2;}
</style>
<path class="st0" d="M9.2,51.7c2.9,0,5.3-1.1,6.9-3L13.2,46c-1,1.3-2.4,1.9-3.9,1.9c-3.1,0-5.1-2.2-5.1-5.4s2.1-5.4,5-5.4
	c1.7,0,3,0.7,3.9,1.7L16,36c-1.6-1.8-4-2.8-6.8-2.8C3.9,33.3,0,37,0,42.4C0,47.9,3.9,51.7,9.2,51.7z"/>
<path class="st0" d="M27.1,51.7c5.4,0,9.3-3.8,9.3-9.2c0-5.4-4-9.2-9.3-9.2s-9.3,3.8-9.3,9.2C17.8,47.9,21.7,51.7,27.1,51.7z
	 M27.1,47.8c-3.1,0-5.1-2.2-5.1-5.4c0-3.2,2.1-5.4,5.1-5.4c3.1,0,5.1,2.2,5.1,5.4C32.2,45.7,30.2,47.8,27.1,47.8z"/>
<path class="st0" d="M61.1,33.3c-2.6,0-4.8,1.2-6.1,3.2c-1.1-2-3.2-3.2-5.7-3.2c-2.3,0-4.3,1-5.5,2.8l-0.2-2.4H40v17.5h4.1V41
	c0-2.6,2.1-4,4.3-4c2.2,0,3.5,1.4,3.5,3.9v10.3h4V41c0-2.5,2.1-4,4.3-4c2.2,0,3.5,1.4,3.5,3.9v10.3h4V40.1
	C67.8,36,65,33.3,61.1,33.3z"/>
<path class="st0" d="M93.2,33.3c-2.6,0-4.8,1.2-6.1,3.2c-1.1-2-3.2-3.2-5.7-3.2c-2.3,0-4.3,1-5.5,2.8l-0.2-2.4h-3.6v17.5h4.1V41
	c0-2.6,2.1-4,4.3-4c2.2,0,3.5,1.4,3.5,3.9v10.3h4V41c0-2.5,2.1-4,4.3-4c2.2,0,3.5,1.4,3.5,3.9v10.3h4V40.1
	C99.8,36,97.1,33.3,93.2,33.3z"/>
<path class="st0" d="M107.5,43.9h13.1c0.1-0.7,0.2-1.9,0.2-2.5c0-4.1-2.7-8.2-8.4-8.2c-5.4,0-9.1,3.8-9.1,9.1c0,5.6,4,9.3,9.4,9.3
	c2.8,0,5.3-1,7.1-2.7l-2.6-2.7c-1.2,1.2-2.8,1.8-4.6,1.8C109.8,48.1,108,46.5,107.5,43.9z M112.3,36.9c2.8,0,4.4,1.7,4.5,4h-9.3
	C108,38.4,109.7,36.9,112.3,36.9z"/>
<path class="st0" d="M133.9,33.3c-2.4,0-4.4,1.1-5.6,3l-0.2-2.6h-3.6v17.5h4.1v-9.7c0-2.9,2.2-4.5,4.6-4.5c0.7,0,1.4,0.2,2.1,0.4
	l1.1-3.9C135.5,33.4,134.7,33.3,133.9,33.3z"/>
<path class="st0" d="M146.2,51.7c2.9,0,5.3-1.1,6.9-3l-2.9-2.7c-1,1.3-2.4,1.9-3.9,1.9c-3.1,0-5.1-2.2-5.1-5.4s2.1-5.4,5-5.4
	c1.7,0,3,0.7,3.9,1.7L153,36c-1.6-1.8-4-2.8-6.8-2.8c-5.3,0-9.2,3.8-9.2,9.2C137,47.9,140.9,51.7,146.2,51.7z"/>
<path class="st0" d="M159,43.9h13.1c0.1-0.7,0.2-1.9,0.2-2.5c0-4.1-2.7-8.2-8.4-8.2c-5.4,0-9.1,3.8-9.1,9.1c0,5.6,4,9.3,9.4,9.3
	c2.8,0,5.3-1,7.1-2.7l-2.6-2.7c-1.2,1.2-2.8,1.8-4.6,1.8C161.4,48.1,159.5,46.5,159,43.9z M163.8,36.9c2.8,0,4.3,1.7,4.5,4H159
	C159.5,38.4,161.3,36.9,163.8,36.9z"/>
<path class="st0" d="M9.2,26.5c2.9,0,5.3-1.1,6.9-3l-2.9-2.7c-1,1.3-2.4,1.9-3.9,1.9c-3.1,0-5.1-2.2-5.1-5.4c0-3.2,2.1-5.4,5-5.4
	c1.7,0,3,0.7,3.9,1.7l2.9-2.7c-1.6-1.8-4-2.8-6.8-2.8C3.9,8.1,0,11.9,0,17.3C0,22.8,3.9,26.5,9.2,26.5z"/>
<path class="st0" d="M29.3,8.1C27,8.1,25,9,23.8,10.6V0h-4.1v26.1h4.1V15.9c0-2.6,2.4-4,4.5-4c2.4,0,3.9,1.4,3.9,3.9v10.3h4V15
	C36.2,10.9,33.3,8.1,29.3,8.1z"/>
<path class="st0" d="M48.7,8.1c-3.1,0-5.8,1-7.6,2.4l1.6,3c1.6-1.2,3.5-1.7,5.3-1.7c2.7,0,4.1,1.3,4.1,3.8v0.6
	c-1.7-0.5-3.5-0.7-5-0.7C43.6,15.4,40,17,40,21c0,3.6,3,5.5,6.1,5.5c2.3,0,4.8-1,6.2-3l0.2,2.5h3.6V15.5
	C56.1,10.6,53.5,8.1,48.7,8.1z M47.1,23.1c-1.8,0-3-0.8-3-2.3c0-1.8,1.6-2.5,3.7-2.5c1.3,0,2.9,0.2,4.3,0.6
	C52.1,21.5,49.5,23.1,47.1,23.1z"/>
<path class="st0" d="M81.6,8.1c-2.6,0-4.8,1.2-6.1,3.2c-1.1-2-3.2-3.2-5.7-3.2c-2.3,0-4.3,1-5.5,2.8l-0.2-2.4h-3.6v17.5h4.1V15.9
	c0-2.6,2.1-4,4.3-4c2.2,0,3.5,1.4,3.5,3.9v10.3h4V15.9c0-2.5,2.1-4,4.3-4c2.2,0,3.5,1.4,3.5,3.9v10.3h4V15
	C88.3,10.9,85.5,8.1,81.6,8.1z"/>
<path class="st0" d="M102,8.1c-2.3,0-4.2,0.8-5.4,2.3V0h-4.1v26.1h3.6l0.2-2.4c1.2,1.8,3.3,2.9,5.8,2.9c4.7,0,8.6-3.8,8.6-9.3
	C110.7,11.9,106.8,8.1,102,8.1z M101.4,22.7c-3,0-5.2-2.1-5.2-5.4c0-3.2,2.1-5.4,5.2-5.4c3.1,0,5.1,2.2,5.1,5.4
	C106.5,20.6,104.5,22.7,101.4,22.7z"/>
<path class="st0" d="M117.7,18.8h13.1c0.1-0.7,0.2-1.9,0.2-2.5c0-4.1-2.7-8.2-8.4-8.2c-5.4,0-9.1,3.8-9.1,9.1c0,5.6,4,9.3,9.4,9.3
	c2.8,0,5.3-1,7.1-2.7l-2.6-2.7c-1.2,1.2-2.8,1.8-4.6,1.8C120.1,23,118.2,21.4,117.7,18.8z M122.6,11.8c2.8,0,4.3,1.7,4.5,4h-9.3
	C118.2,13.3,120,11.8,122.6,11.8z"/>
<path class="st0" d="M144.1,8.1c-2.4,0-4.4,1.1-5.6,3l-0.2-2.6h-3.6v17.5h4.1v-9.7c0-2.9,2.2-4.5,4.6-4.5c0.7,0,1.4,0.2,2.1,0.4
	l1.1-3.9C145.8,8.3,145,8.1,144.1,8.1z"/>
<path class="st0" d="M155.1,26.5c4,0,7-2.9,7-7.2s-2.9-7.2-7-7.2c-4,0-7,2.9-7,7.2S151.1,26.5,155.1,26.5z M155.1,25
	c-3.2,0-5.4-2.3-5.4-5.7s2.2-5.7,5.4-5.7c3.2,0,5.4,2.3,5.4,5.7S158.2,25,155.1,25z"/>
<path class="st0" d="M168.2,10.1c0-2.3,1-3.3,3.1-3.3c1.1,0,1.9,0.3,2.5,0.8l0.8-1.2c-0.8-0.7-2-1-3.2-1c-3,0-4.6,1.6-4.6,4.8v2.4
	h-3.1v1.4h3.1v12.2h1.5V13.9h5.6v-1.4h-5.6V10.1z"/>
<path class="st0" d="M6.3,65.2h1.6l-2-3C7.1,62,7.7,61.1,7.7,60c0-1.4-1-2.3-2.5-2.3H1.9v7.5h1.3v-2.9h1.2L6.3,65.2z M3.2,58.9h1.9
	c0.8,0,1.2,0.4,1.2,1.1c0,0.7-0.4,1.1-1.2,1.1H3.2V58.9z"/>
<path class="st0" d="M19.5,63.9V62h3.9v-1.2h-3.9v-1.9h4.1v-1.2h-5.4v7.5h5.5v-1.2H19.5z"/>
<path class="st0" d="M39,57.7v5.2l-3.8-5.2H34v7.5h1.3v-5.1l3.7,5.1h1.2v-7.5H39z"/>
<path class="st0" d="M54.7,65.3c2.3,0,3.9-1.6,3.9-3.9s-1.7-3.9-3.9-3.9c-2.3,0-3.9,1.6-3.9,3.9S52.4,65.3,54.7,65.3z M54.7,64
	c-1.5,0-2.5-1.1-2.5-2.6c0-1.5,1-2.6,2.5-2.6c1.5,0,2.5,1.1,2.5,2.6C57.2,63,56.2,64,54.7,64z"/>
<path class="st0" d="M88.9,65.3c1.8,0,3-0.9,3-2.3c0-1.7-1.9-2-2.9-2.2c-1.3-0.2-1.7-0.5-1.7-1c0-0.6,0.5-1,1.6-1
	c0.7,0,1.4,0.2,2.1,0.6l0.6-1.1c-0.8-0.5-1.7-0.7-2.7-0.7C87.7,57.5,86,58,86,60c0,1.2,0.6,1.7,2.9,2.1c0.9,0.2,1.6,0.3,1.6,1
	c0,0.7-0.6,1-1.5,1c-0.9,0-1.9-0.4-2.6-0.9l-0.6,1.1C86.3,64.8,87.6,65.3,88.9,65.3z"/>
<path class="st0" d="M105.5,57.7h-3v7.5h1.3v-2.4h1.6c1.7,0,2.8-1,2.8-2.6S107.3,57.7,105.5,57.7z M105.5,61.5h-1.6v-2.6h1.6
	c0.9,0,1.4,0.5,1.4,1.3C106.9,61,106.4,61.5,105.5,61.5z"/>
<path class="st0" d="M123.5,65.2h1.4l-3-7.5h-1.5l-3,7.5h1.4l0.7-1.8h3.3L123.5,65.2z M120,62.1l1.2-3l1.2,3H120z"/>
<path class="st0" d="M139.7,65.2h1.6l-2-3c1.2-0.2,1.8-1.1,1.8-2.2c0-1.4-1-2.3-2.5-2.3h-3.3v7.5h1.3v-2.9h1.2L139.7,65.2z
	 M136.6,58.9h1.9c0.8,0,1.2,0.4,1.2,1.1c0,0.7-0.4,1.1-1.2,1.1h-1.9V58.9z"/>
<path class="st0" d="M156.5,65.2h1.6l-3.3-4.1l3-3.4h-1.7l-3.2,3.6v-3.6h-1.3v7.5h1.3v-1.9l1-1.2L156.5,65.2z"/>
<path class="st0" d="M170.9,65.3c1.8,0,3-0.9,3-2.3c0-1.7-1.9-2-2.9-2.2c-1.3-0.2-1.7-0.5-1.7-1c0-0.6,0.5-1,1.6-1
	c0.7,0,1.4,0.2,2.1,0.6l0.6-1.1c-0.8-0.5-1.7-0.7-2.7-0.7c-1.4,0-3.1,0.5-3.1,2.4c0,1.2,0.6,1.7,2.9,2.1c0.9,0.2,1.6,0.3,1.6,1
	c0,0.7-0.6,1-1.5,1c-0.9,0-1.9-0.4-2.6-0.9l-0.6,1.1C168.2,64.8,169.5,65.3,170.9,65.3z"/>
<path class="st0" d="M74,61.3h-1.8v-1.8h-1v1.8h-1.8v1h1.8v1.8h1v-1.8H74V61.3z"/>
</svg>
