<?xml version="1.0" encoding="utf-8"?>
<!-- Generator: Adobe Illustrator 27.8.1, SVG Export Plug-In . SVG Version: 6.00 Build 0)  -->
<svg version="1.1" id="Layer_1" xmlns="http://www.w3.org/2000/svg" xmlns:xlink="http://www.w3.org/1999/xlink" x="0px" y="0px"
	 viewBox="0 0 133.1 53.6" style="enable-background:new 0 0 133.1 53.6;" xml:space="preserve">
<g>
	<path style="fill:#9EADB2;" d="M111.2,6.3c-1.5,0.7-3,1.3-4.5,2c-0.6,0.3-0.8,0.2-1-0.4c-0.3-0.7-0.6-1.5-0.9-2.1
		c-0.3-0.6-0.2-0.8,0.4-1.1c3.3-1.4,6.6-2.8,10-4.2c0.2-0.1,0.5-0.1,0.7-0.4c0.1,0,0.1,0,0.2,0c1.6,3.7,3.2,7.4,4.8,11.1
		c0.2,0.4,0.1,0.5-0.3,0.7c-0.9,0.3-1.7,0.7-2.6,1.1c-0.5,0.2-0.6,0.1-0.8-0.4c-0.6-1.6-1.3-3.2-2-5c-1,2.5-2,4.8-2.9,7.2
		c-0.8,2-0.8,2-3,2c-2,0-2,0-1.3-1.9c1.1-2.8,2.4-5.6,3.3-8.5c0,0,0.1-0.1,0.1-0.1C111.4,6.2,111.3,6.2,111.2,6.3z"/>
	<path style="fill:#9EADB2;" d="M40.7,53.6c-0.1-0.2-0.2-0.2-0.4-0.2c-0.4-0.2-0.8-0.5-0.7-1c0.1-0.5,0.4-0.7,0.9-0.8
		c0,1.3,0.8,1.8,2,1.3c0.4-0.2,0.7-0.4,0.7-0.9c0-0.5-0.5-0.5-0.8-0.6c-0.2,0-0.4,0-0.7,0c-0.5,0-1.2,0.1-1.3-0.6
		c-0.2-0.6,0.4-0.9,0.9-1.2c-0.7-0.6-0.9-1.3-0.5-2c0.4-0.8,1.1-1,2-1c0.7,0,1.4,0.4,2.2,0c0.2-0.1,0.2,0.2,0.3,0.4
		c0.1,0.3-0.1,0.4-0.3,0.4c-0.6,0-0.6,0.3-0.6,0.8c0.1,0.7-0.6,1.4-1.4,1.6c-0.3,0.1-0.6,0-0.8,0.1c-0.3,0.1-0.7,0.2-0.7,0.5
		c0,0.5,0.5,0.2,0.7,0.3c0.2,0,0.4,0,0.6,0.1c0.7,0,1.4,0.2,1.5,1.1c0.1,0.8-0.5,1.5-1.3,1.7c-0.2,0.1-0.5-0.1-0.6,0.2
		C41.7,53.6,41.2,53.6,40.7,53.6z M41.5,48.2c0,0.6,0.2,1,0.7,1c0.8,0,1-0.5,1.1-1.3c0-0.5-0.1-0.9-0.8-0.9
		C41.8,47.1,41.6,47.6,41.5,48.2z"/>
	<path style="fill:#9EADB2;" d="M110.4,53.6c0-0.2-0.2-0.2-0.3-0.3c-0.4-0.2-0.7-0.4-0.6-0.9c0.1-0.5,0.4-0.7,0.9-0.8
		c0,1.3,0.9,1.8,2.1,1.2c0.4-0.2,0.6-0.4,0.6-0.8c0-0.5-0.4-0.6-0.8-0.6c-0.4-0.1-0.8,0-1.2-0.1c-0.3,0-0.7-0.1-0.8-0.5
		c-0.1-0.4,0-0.7,0.3-0.9c0.4-0.3,0.4-0.4,0.1-0.8c-0.7-1,0-2.4,1.4-2.6c0.9-0.1,1.9,0.4,2.8,0.1c0,0.1,0,0.2,0,0.3
		c0,0.1,0,0.2,0,0.4c-0.6,0.1-0.9,0.2-0.8,1c0.1,0.8-0.6,1.3-1.4,1.5c-0.2,0-0.4,0-0.6,0c-0.4,0-1,0-0.9,0.5c0,0.4,0.6,0.2,0.9,0.2
		c1.3,0.1,1.9,0.4,1.9,1.2c0,0.9-0.6,1.5-1.8,1.7c-0.1,0-0.1,0.1-0.2,0.2C111.4,53.6,110.9,53.6,110.4,53.6z M111.3,48.3
		c0,0.6,0.3,0.9,0.8,0.9c0.8,0,1-0.6,1.1-1.3c0-0.6-0.2-0.9-0.8-0.9C111.6,47.1,111.4,47.7,111.3,48.3z"/>
	<path style="fill:#9EADB2;" d="M133.1,45.3c-0.7,1.7-0.8,3.5-1.3,5.2c-0.1,0.3,0.1,0.4,0.4,0.4c0.2,0,0.4,0,0.4,0.3
		c0,0.2-0.3,0.2-0.4,0.3c-0.8,0.3-1.2,0.1-1.3-0.8c-0.1,0.1-0.2,0.1-0.2,0.1c-0.6,0.6-1.3,1.1-2.1,0.6c-0.8-0.5-0.7-1.3-0.5-2.1
		c0.4-1.8,1.6-2.8,3.4-2.9c0.3,0,0.5-0.1,0.5-0.4c0-0.4,0.4-0.8-0.2-1.2c-0.1-0.1-0.3-0.1-0.4-0.3c0.6-0.2,1.2-0.5,1.8-0.2
		C133.1,44.7,133.1,45,133.1,45.3z M128.9,49.9c0,0.4,0,0.8,0.3,1c0.4,0.2,0.7-0.1,1-0.3c0.8-0.7,1.1-1.6,1.2-2.6
		c0-0.3,0.3-0.5,0-0.8c-0.3-0.2-0.6-0.1-1,0C129.2,47.8,129,48.8,128.9,49.9z"/>
	<path style="fill:#9EADB2;" d="M27.6,53.6c0-0.2-0.2-0.2-0.3-0.3c-0.4-0.2-0.7-0.5-0.6-0.9c0.1-0.5,0.4-0.7,0.9-0.7
		c0,1.3,0.9,1.8,2.1,1.2c0.4-0.2,0.6-0.5,0.5-0.9c0-0.4-0.4-0.5-0.7-0.5c-0.4-0.1-0.9-0.1-1.3-0.1c-0.3,0-0.7-0.1-0.8-0.5
		c-0.1-0.4,0-0.8,0.4-1c0.5-0.2,0.4-0.4,0.1-0.7c-0.8-1-0.1-2.5,1.3-2.6c1-0.1,1.9,0.1,2.9,0.1c0,0.2,0,0.3,0,0.5
		c-0.3,0.1-0.5,0.1-0.8,0.2c0.2,1.6-0.3,2.1-2,2.3c-0.2,0-0.4,0.1-0.6,0.1c-0.2,0.1-0.4,0.2-0.3,0.4c0,0.3,0.3,0.2,0.5,0.3
		c0.3,0,0.6,0.1,0.9,0.1c0.6,0,1.2,0.2,1.3,0.9c0.1,0.8-0.2,1.3-0.8,1.7c-0.3,0.2-0.7,0-1,0.4C28.7,53.6,28.1,53.6,27.6,53.6z
		 M30.4,48c0-0.6-0.2-1-0.8-1c-0.8,0-1,0.6-1.1,1.3c-0.1,0.6,0.3,0.9,0.8,0.9C30.1,49.2,30.3,48.6,30.4,48z"/>
	<path style="fill:#9EADB2;" d="M0,21.9c0.1,0,0.1,0,0.2,0c0,1.1,0,2.2,0,3.4c-0.1,0-0.1,0-0.2,0C0,24.2,0,23,0,21.9z"/>
	<path style="fill:#9EADB2;" d="M133.1,39.2c-0.1,0-0.2,0-0.2,0c0-1.1,0-2.2,0-3.3c0.1,0,0.1,0,0.2,0
		C133.1,36.9,133.1,38,133.1,39.2z"/>
	<path style="fill:#9EADB2;" d="M62.5,32.8c2.4,2.2,4.6,4.1,7,6.3c-1.5,0-2.9-0.1-4.2,0c-0.9,0.1-1.6-0.2-2.3-0.9
		c-2.2-2.1-4.5-4.1-7-6.3c0,1.8,0,3.5,0,5.2c0,2,0,2-2,2c-1.8,0-1.8,0-1.8-1.8c0-4.9,0-9.7,0-14.6c0-0.7,0.1-0.9,0.9-0.9
		c3.2,0,6.4,0,9.6,0c0.8,0,1.6,0.1,2.4,0.3c2.6,0.7,4.1,2.7,3.9,5.3c-0.1,2.6-1.7,4.5-4.3,5.1C64.2,32.7,63.5,32.8,62.5,32.8z
		 M59.5,29.9C59.5,29.9,59.5,29.9,59.5,29.9c1.1,0,2.1,0,3.2,0c0.2,0,0.4-0.1,0.6-0.1c1.5-0.4,2.3-1.5,1.9-2.8
		c-0.3-1.1-1.2-1.6-2.2-1.7c-2.1-0.2-4.3-0.1-6.4-0.1c-0.5,0-0.5,0.3-0.5,0.6c0,1.2,0,2.4,0,3.5c0,0.5,0.2,0.6,0.7,0.6
		C57.7,29.9,58.6,29.9,59.5,29.9z"/>
	<path style="fill:#9EADB2;" d="M132.9,35.8c0,1.1,0,2.2,0,3.3c-4.6,0-9.1,0-13.7,0c-0.7,0-0.9-0.2-0.9-0.9c0-5.2,0-10.4,0-15.5
		c0-0.6,0.1-0.9,0.8-0.9c4.3,0,8.7,0,13,0c0.6,0,0.8,0.1,0.8,0.8c-0.1,0.9,0.4,2-0.2,2.5c-0.5,0.4-1.6,0.1-2.4,0.1
		c-2.4,0-4.9,0-7.3,0c-0.6,0-0.9,0.1-0.8,0.8c0.1,0.8-0.3,1.9,0.2,2.4c0.5,0.5,1.5,0.1,2.4,0.1c2.4,0,4.7,0,7.1,0
		c0.7,0,0.9,0.2,0.9,0.9c-0.1,0.8,0.3,1.9-0.2,2.3c-0.5,0.5-1.6,0.2-2.4,0.2c-2.4,0-4.7,0-7.1,0c-0.6,0-0.9,0.1-0.8,0.8
		c0.1,0.9-0.4,2.2,0.2,2.8c0.6,0.6,1.8,0.1,2.7,0.2C127.6,35.8,130.3,35.8,132.9,35.8z"/>
	<path style="fill:#9EADB2;" d="M42.1,30.5c0,2.6,0,5.2,0,7.8c0,0.6-0.1,0.9-0.8,0.9c-1-0.1-2.3,0.4-2.9-0.2
		c-0.6-0.6-0.1-1.8-0.2-2.8c0-1.1,0-2.2,0-3.3c0-0.4,0-0.7-0.6-0.7c-2.7,0-5.3,0-8,0c-0.6,0-0.5,0.3-0.5,0.7c0,1.8,0,3.7,0,5.5
		c0,0.5-0.1,0.8-0.7,0.7c-0.8-0.1-1.6,0-2.4,0c-0.5,0-0.7-0.1-0.7-0.6c0-5.4,0-10.7,0-16.1c0-0.4,0.1-0.6,0.5-0.6
		c1.1,0,2.4-0.3,3.1,0.2c0.6,0.4,0.2,1.9,0.2,2.8c0,1.1,0,2.1,0,3.2c0,0.5,0.2,0.6,0.6,0.6c2.6,0,5.2,0,7.9,0c0.5,0,0.6-0.2,0.6-0.6
		c0-1.8,0-3.6,0-5.4c0-0.6,0.1-0.8,0.7-0.7c1,0.1,2.3-0.3,2.9,0.2c0.6,0.5,0.2,1.9,0.2,2.9C42.2,26.8,42.1,28.6,42.1,30.5z"/>
	<path style="fill:#9EADB2;" d="M100.5,34.4c1.5-4.1,3-7.9,4.4-11.8c0.2-0.6,0.5-0.8,1.1-0.8c1.1,0.1,2.2,0,3.4,0
		c-0.7,1.8-1.4,3.4-2,5.1c-1.5,3.8-3,7.6-4.5,11.5c-0.2,0.5-0.4,0.7-1,0.7c-0.9-0.1-1.9,0-2.8,0c-0.5,0-0.8-0.1-1-0.7
		c-2.1-5.4-4.2-10.8-6.3-16.1c0-0.1-0.1-0.2-0.1-0.4c1.3,0,2.6,0,3.9,0c0.5,0,0.5,0.4,0.6,0.7c1.4,3.7,2.8,7.5,4.2,11.2
		C100.3,33.9,100.4,34.1,100.5,34.4z"/>
	<path style="fill:#9EADB2;" d="M0.2,25.3c0-1.1,0-2.2,0-3.4c5.1,0,10.2,0,15.4,0c0.5,0,0.6,0.2,0.6,0.6c0,0.9,0.3,2.1-0.2,2.6
		c-0.4,0.5-1.6,0.1-2.5,0.2c-0.9,0-1.8,0.1-2.7,0c-0.7,0-0.8,0.2-0.7,0.8c0,4,0,8.1,0,12.1c0,0.8-0.1,1.1-1,1
		C8.2,39.1,7,39.4,6.5,39c-0.6-0.5-0.2-1.8-0.2-2.7c0-3.4,0-6.7,0-10.1c0-0.8-0.2-0.9-0.9-0.9C3.6,25.3,1.9,25.3,0.2,25.3z"/>
	<path style="fill:#9EADB2;" d="M82.7,30.4c0,2.7,0,5.3,0,8c0,0.6-0.1,0.8-0.7,0.7c-1-0.1-2.3,0.4-2.9-0.2c-0.6-0.6-0.1-1.8-0.2-2.8
		c0-4.5,0-8.9,0-13.4c0-0.7,0.2-0.9,0.9-0.9c0.7,0.1,1.3,0.1,2,0c0.7-0.1,1,0.1,0.9,0.9C82.7,25.3,82.7,27.9,82.7,30.4z"/>
	<path style="fill:#9EADB2;" d="M13,47.5c1.4-1.4,2.1-1.4,2.6,0c0.3-0.3,0.6-0.5,0.9-0.8c0.4-0.2,0.8-0.4,1.2-0.1
		c0.4,0.3,0.4,0.7,0.4,1.2c-0.2,0.8-0.3,1.6-0.5,2.4c-0.1,0.4-0.3,0.8,0.4,0.8c0.2,0,0.4,0.2,0.1,0.4c-0.4,0.2-0.8,0.4-1.2,0.2
		c-0.4-0.2-0.5-0.6-0.4-0.9c0.1-0.8,0.4-1.6,0.5-2.5c0-0.3,0.3-0.7-0.1-0.8c-0.4-0.2-0.6,0.2-0.9,0.4c-0.6,0.6-0.9,1.3-1,2.1
		c-0.1,0.5-0.2,0.9-0.3,1.4c-0.1,0.5-0.5,0.3-0.8,0.3c-0.5,0-0.2-0.4-0.2-0.5c0.2-1,0.4-2.1,0.6-3.1c0-0.2,0.1-0.5-0.1-0.6
		c-0.2-0.1-0.4,0-0.6,0.2c-0.7,0.6-1.2,1.3-1.3,2.3c-0.1,0.5-0.2,0.9-0.3,1.4c-0.1,0.5-0.5,0.4-0.8,0.4c-0.5,0-0.2-0.4-0.2-0.6
		c0.2-0.9,0.4-1.9,0.6-2.8c0.1-0.4,0.2-0.8-0.4-1c-0.4-0.1-0.2-0.4,0.1-0.5C12.2,46.3,12.6,46.6,13,47.5z"/>
	<path style="fill:#9EADB2;" d="M98.6,47.5c1.6-1.4,2.2-1.4,2.6,0c0.3-0.3,0.6-0.6,1-0.8c0.4-0.3,0.8-0.3,1.2,0
		c0.4,0.3,0.4,0.7,0.3,1.1c-0.2,0.9-0.4,1.7-0.5,2.6c-0.1,0.3-0.2,0.7,0.3,0.7c0.1,0,0.3,0,0.4,0.2c0,0.2-0.2,0.3-0.4,0.3
		c-0.9,0.4-1.5,0-1.3-1c0.1-0.9,0.3-1.7,0.5-2.6c0.1-0.2,0.2-0.5-0.1-0.7c-0.3-0.1-0.5,0.1-0.7,0.2c-0.5,0.5-1,1-1.1,1.8
		c-0.1,0.6-0.3,1.1-0.3,1.6c-0.1,0.5-0.3,0.7-0.8,0.6c-0.6-0.1-0.2-0.6-0.1-0.8c0.2-0.9,0.4-1.8,0.6-2.7c0.1-0.2,0.2-0.5-0.1-0.7
		c-0.3-0.2-0.5,0.1-0.7,0.2c-0.8,0.6-1.2,1.4-1.3,2.4c-0.1,0.4-0.2,0.8-0.3,1.3c-0.1,0.5-0.4,0.4-0.7,0.4c-0.4,0-0.3-0.3-0.2-0.5
		c0.2-1,0.4-2,0.6-2.9c0.1-0.3,0.1-0.5-0.1-0.8c-0.1-0.2-0.9,0-0.4-0.5c0.3-0.3,0.9-0.5,1.3,0C98.6,47,98.6,47.3,98.6,47.5z"/>
	<path style="fill:#9EADB2;" d="M85.6,51.3c-0.9,0.3-1.7,0.2-2.5,0.2c-0.1,0-0.3,0-0.3-0.2c0-0.2,0.1-0.2,0.3-0.3
		c0.5-0.1,0.6-0.5,0.7-0.9c0.3-1.4,0.6-2.9,0.9-4.3c0-0.2,0.1-0.5,0-0.7c-0.1-0.2-0.6-0.1-0.5-0.4c0.1-0.4,0.6-0.2,0.8-0.2
		c0.7,0,1.5,0,2.2,0.1c0.7,0.1,1.3,0.3,1.5,1.2c0.1,1-0.2,1.8-1.1,2.2c-0.3,0.1-0.5,0.2-0.9,0.3c0.5,0.5,0.8,1.2,1,1.8
		c0.1,0.2,0.2,0.4,0.3,0.7c0.1,0.3,0.7,0.2,0.5,0.6c-0.2,0.3-0.6,0.1-1,0.1c-0.5,0.1-0.6-0.2-0.7-0.6c-0.2-0.7-0.5-1.3-0.7-2
		c-0.1-0.3-0.4-0.6-0.8-0.5c-0.3,0.1-0.3,0.4-0.3,0.7c-0.1,0.3-0.1,0.6-0.2,0.9C84.8,50.6,84.5,51.2,85.6,51.3z M87.7,46.3
		c0-0.6-0.4-1-1.1-1.1c-0.8-0.1-0.9,0.3-1,0.9c-0.1,0.5-0.2,0.9-0.3,1.4c0,0.2-0.1,0.4,0.2,0.5C86.6,48.2,87.7,47.4,87.7,46.3z"/>
	<path style="fill:#9EADB2;" d="M4.9,51.3c1-0.1,1-0.8,1.2-1.4c0.2-1.2,0.4-2.3,0.7-3.5c0.1-0.6,0.3-1.2-0.5-1.4
		c0.1-0.2,0.2-0.3,0.4-0.3c1.3,0,2.6,0,3.8,0c0.2,0,0.6,0,0.5,0.3c-0.1,0.4,0.1,0.9-0.3,1.2c-0.2,0.1-0.3-0.1-0.3-0.3
		c-0.3-1.2-1.2-0.6-1.9-0.7c-0.7-0.1-0.5,0.6-0.6,0.9c-0.1,0.1-0.1,0.3-0.1,0.5c0,0.3-0.4,0.8,0,1c0.4,0.2,1.1,0.3,1.4-0.3
		c0.1-0.2,0.2-0.4,0.5-0.3c0.2,0.1,0.1,0.3,0,0.5c0,0.2-0.1,0.5-0.2,0.7c-0.1,0.2,0,0.5-0.3,0.6c-0.3,0.1-0.2-0.3-0.3-0.5
		c-0.3-0.3-0.8-0.3-1.2-0.2c-0.5,0-0.4,0.4-0.4,0.7c0,0.2-0.1,0.3-0.1,0.5c0.1,0.5-0.6,1.2,0,1.6c0.6,0.4,2-0.1,2.4-0.8
		c0.1-0.2,0.2-0.3,0.4-0.3c0.2,0.1,0.1,0.3,0.1,0.4c0,1.1-0.2,1.3-1.3,1.3c-1.3,0-2.6,0-3.9,0C4.9,51.5,4.9,51.4,4.9,51.3z"/>
	<path style="fill:#9EADB2;" d="M65.9,50.7c-1.1,1-1.8,1.3-2.4,0.8c-0.6-0.4-0.7-1.4-0.3-2.5c0.5-1.4,1.4-2.3,2.9-2.5
		c0.3-0.1,0.8,0.3,0.9-0.4c0.1-0.6,0.3-1.1-0.6-1.3c0.4-0.5,1-0.4,1.4-0.5c0.4-0.1,0.3,0.3,0.3,0.5c0,1.2-0.4,2.4-0.6,3.6
		c-0.1,0.6-0.3,1.2-0.4,1.8c-0.1,0.4-0.3,0.8,0.4,0.8c0.1,0,0.3,0.1,0.2,0.2c0,0.1-0.1,0.2-0.2,0.3C66.7,51.9,66.1,51.6,65.9,50.7z
		 M63.9,50c0,0.3,0,0.8,0.4,0.9c0.4,0.2,0.7-0.1,1-0.4c0.8-0.7,1.1-1.6,1.2-2.5c0-0.3,0.3-0.7-0.1-0.9c-0.3-0.2-0.7-0.1-1.1,0.1
		C64.4,47.9,64.1,48.9,63.9,50z"/>
	<path style="fill:#9EADB2;" d="M36.8,47.5c0.4-0.3,0.7-0.7,1.2-0.9c1-0.4,1.6,0,1.5,1.1c-0.1,0.9-0.3,1.7-0.5,2.6
		c-0.1,0.4-0.2,0.7,0.4,0.7c0.2,0,0.3,0.1,0.3,0.3c0,0.1-0.1,0.2-0.2,0.2c-0.4,0.1-0.8,0.3-1.2,0.1c-0.4-0.3-0.3-0.7-0.3-1.1
		c0.2-0.9,0.4-1.7,0.5-2.6c0-0.2,0.1-0.4-0.1-0.6c-0.2-0.1-0.4,0-0.6,0.1c-0.7,0.5-1.2,1.2-1.3,2c-0.1,0.5-0.3,1-0.3,1.6
		c0,0.6-0.4,0.6-0.8,0.5c-0.5-0.1-0.2-0.4-0.2-0.7c0.2-1,0.4-2,0.6-2.9c0.1-0.3,0.1-0.5-0.1-0.7c-0.1-0.2-0.8,0-0.4-0.5
		c0.3-0.3,0.9-0.5,1.3,0C36.7,47,36.7,47.3,36.8,47.5z"/>
	<path style="fill:#9EADB2;" d="M119.6,47.5c0.5-0.3,0.8-0.8,1.3-0.9c0.9-0.3,1.5,0.1,1.4,1c-0.1,0.9-0.3,1.8-0.5,2.7
		c0,0.2-0.2,0.5,0,0.7c0.2,0.2,0.8-0.2,0.6,0.4c-0.2,0.3-0.7,0.4-1.1,0.3c-0.4-0.1-0.6-0.4-0.5-0.8c0-0.3,0.1-0.6,0.1-0.8
		c0.1-0.7,0.3-1.5,0.4-2.2c0-0.2,0-0.4-0.1-0.5c-0.2-0.2-0.4-0.1-0.6,0.1c-0.7,0.4-1.2,1-1.4,1.8c-0.1,0.6-0.3,1.2-0.4,1.8
		c-0.1,0.6-0.4,0.6-0.8,0.5c-0.5-0.1-0.2-0.4-0.2-0.6c0.2-0.9,0.4-1.9,0.6-2.8c0.1-0.3,0.1-0.6-0.1-0.8c-0.2-0.2-0.9-0.1-0.3-0.5
		c0.3-0.3,0.9-0.4,1.3,0.1C119.5,47,119.5,47.3,119.6,47.5z"/>
	<path style="fill:#9EADB2;" d="M107.5,50.7c-0.7,0.7-1.3,1.3-2.2,0.8c-0.9-0.5-0.6-1.5-0.4-2.3c0.2-0.9,0.8-1.6,1.5-2.3
		c1-0.8,2-0.1,3-0.3c0.2,0,0,0.3,0,0.5c-0.3,1-0.5,2-0.8,3.1c-0.1,0.2-0.1,0.5,0.1,0.7c0.2,0.2,0.7-0.1,0.6,0.3
		c-0.1,0.4-0.5,0.3-0.8,0.4c-0.4,0.1-0.7,0-0.8-0.4C107.6,51.1,107.5,51,107.5,50.7z M105.7,49.9c0,0.4-0.1,0.8,0.3,1
		c0.4,0.2,0.7-0.1,1-0.4c0.8-0.7,1-1.6,1.2-2.6c0-0.3,0.3-0.6,0-0.8c-0.4-0.2-0.7-0.1-1,0.1C106.1,47.9,105.8,48.9,105.7,49.9z"/>
	<path style="fill:#9EADB2;" d="M60.3,50.7c-0.2,0.2-0.4,0.4-0.6,0.6c-0.5,0.3-1,0.6-1.6,0.3c-0.6-0.3-0.6-0.8-0.6-1.4
		c0.1-1.5,0.7-2.6,2-3.4c0.6-0.3,1.2-0.5,1.8-0.1c0.1,0,0.2,0.2,0.2,0.1c1.7-0.7,0.5,0.6,0.5,0.8c-0.1,0.8-0.4,1.6-0.5,2.5
		c-0.1,0.4-0.4,0.8,0.4,0.9c0.4,0,0.2,0.4-0.1,0.5C61.2,51.9,60.6,51.6,60.3,50.7z M58.5,49.9c0,0.4,0,0.8,0.3,1
		c0.4,0.2,0.6-0.1,0.9-0.3c0.8-0.7,1.1-1.5,1.2-2.5c0-0.3,0.4-0.7,0-0.9c-0.4-0.3-0.8-0.1-1.2,0.2C58.9,48,58.7,49,58.5,49.9z"/>
	<path style="fill:#9EADB2;" d="M49.3,51.6c-0.6,0-1.2,0-1.9,0c-0.1,0-0.3,0-0.4-0.2c0-0.2,0.2-0.2,0.3-0.2c0.5-0.1,0.6-0.4,0.6-0.8
		c0.3-1.5,0.6-3,0.9-4.5c0-0.2,0.1-0.4-0.1-0.6c-0.1-0.2-0.6-0.1-0.5-0.4c0.1-0.4,0.6-0.1,0.8-0.2c0.2,0,0.4,0,0.7,0
		c0.4,0,0.9-0.2,1,0.1c0.2,0.5-0.5,0.3-0.7,0.5c-0.2,0.2-0.3,0.5-0.3,0.8c-0.3,1.5-0.5,2.9-0.8,4.4c-0.1,0.5,0,0.6,0.5,0.6
		c0.9,0,1.7,0.1,2.1-1c0.1-0.2,0.2-0.2,0.4-0.2c0.3,0.1,0.1,0.3,0.1,0.5c-0.1,0.9-0.4,1.5-1.5,1.3C50.1,51.5,49.7,51.6,49.3,51.6z"
		/>
	<path style="fill:#9EADB2;" d="M71.5,46.5c0.4,0,1,0.2,1.2,0.9c0.2,0.7-0.1,1.3-0.8,1.6c-0.5,0.3-1.1,0.3-1.6,0.4
		c-0.3,0.1-0.9-0.2-0.8,0.5c0.1,0.6,0.2,1.1,1,1.2c0.4,0,0.8-0.1,1.2-0.4c0.1-0.1,0.3-0.3,0.5-0.1c0.2,0.2,0,0.3-0.1,0.5
		c-0.5,0.6-1.8,0.9-2.5,0.5c-0.9-0.4-1.1-1.2-1-2C68.6,47.8,69.9,46.4,71.5,46.5z M69.6,48.9c0.7,0.1,1.3,0,1.8-0.4
		c0.4-0.3,0.5-0.8,0.2-1.2c-0.3-0.4-0.8-0.2-1.1,0C70,47.7,69.7,48.2,69.6,48.9z"/>
	<path style="fill:#9EADB2;" d="M89.4,50.1c0-2.1,1.3-3.6,2.8-3.6c0.6,0,1.2,0.2,1.4,0.9c0.2,0.7-0.1,1.3-0.8,1.6
		c-0.5,0.3-1.1,0.3-1.6,0.4c-0.4,0.1-0.9-0.2-0.9,0.6c0.1,0.7,0.4,1.1,1.1,1.1c0.4,0,0.7-0.2,1-0.4c0.2-0.1,0.3-0.4,0.5,0
		c0.1,0.2,0,0.3-0.2,0.5c-0.6,0.6-1.8,0.8-2.5,0.5C89.5,51.2,89.4,50.5,89.4,50.1z M90.5,48.9c0.6,0,1.2,0,1.7-0.4
		c0.5-0.3,0.6-0.8,0.3-1.2c-0.3-0.5-0.8-0.3-1.1,0C90.9,47.7,90.6,48.2,90.5,48.9z"/>
	<path style="fill:#9EADB2;" d="M18.9,49.8c0.1-1.9,1.4-3.4,2.9-3.3c0.6,0,1.2,0.2,1.4,0.9c0.2,0.7-0.1,1.2-0.7,1.6
		c-0.5,0.3-1.1,0.4-1.7,0.4c-0.4,0.1-0.9-0.2-0.8,0.5c0.1,0.6,0.3,1.1,1,1.1c0.4,0,0.9-0.2,1.2-0.4c0.1-0.1,0.3-0.3,0.5,0
		c0.2,0.2,0,0.3-0.1,0.5c-0.6,0.6-1.8,0.8-2.5,0.5C19.1,51.2,19,50.4,18.9,49.8z M20.1,48.9c0.7,0,1.3,0,1.8-0.4
		c0.4-0.3,0.6-0.8,0.2-1.2c-0.4-0.5-0.8-0.2-1.1,0C20.5,47.7,20.2,48.2,20.1,48.9z"/>
	<path style="fill:#9EADB2;" d="M54.5,51.7c-0.9,0-1.5-0.5-1.7-1.4c-0.3-1.6,0.7-3.3,2.1-3.7c0.9-0.3,1.8,0,2.1,0.7
		c0.3,0.8-0.1,1.5-1.2,1.8c-0.4,0.1-0.8,0.2-1.2,0.2c-0.4,0.1-0.9-0.2-0.8,0.6c0.1,0.6,0.3,1.1,1,1.1c0.4,0,0.8-0.1,1.1-0.4
		c0.1-0.1,0.3-0.3,0.5-0.1c0.2,0.2,0,0.4-0.2,0.5C55.7,51.5,55.1,51.7,54.5,51.7z M53.9,48.9c0.7,0,1.2,0,1.7-0.4
		c0.4-0.3,0.6-0.8,0.3-1.2c-0.3-0.5-0.8-0.3-1.1,0C54.3,47.7,54,48.2,53.9,48.9z"/>
	<path style="fill:#9EADB2;" d="M123.1,49.8c0-1.7,1.2-3.2,2.6-3.3c0.8-0.1,1.5,0.1,1.7,0.9c0.2,0.9-0.3,1.4-1,1.6
		c-0.5,0.2-1,0.2-1.5,0.3c-0.3,0.1-0.8-0.2-0.8,0.5c0,0.5,0.1,1.1,0.8,1.2c0.5,0.1,0.9-0.1,1.3-0.4c0.1-0.1,0.3-0.4,0.5-0.1
		c0.1,0.2,0,0.3-0.2,0.5c-0.7,0.6-1.5,0.8-2.4,0.5C123.3,51.3,123.1,50.6,123.1,49.8z M124.2,48.9c0.7,0,1.2,0,1.7-0.3
		c0.5-0.3,0.6-0.8,0.3-1.3c-0.3-0.5-0.8-0.2-1.1,0C124.6,47.7,124.4,48.2,124.2,48.9z"/>
	<path style="fill:#9EADB2;" d="M77.8,51.7c-0.2,0-0.5-0.1-0.9-0.2c-0.3-0.1-0.5-0.3-0.4-0.7c0.1-0.2-0.1-0.5,0.3-0.6
		c0.5-0.1,0.5,0.2,0.5,0.5c0.1,0.5,0.6,0.4,1,0.4c0.4,0,0.7-0.2,0.8-0.6c0.1-0.4-0.1-0.7-0.5-0.9c-0.3-0.2-0.7-0.3-1-0.5
		c-1-0.6-0.9-1.8,0-2.4c0.7-0.4,1.5-0.4,2.3-0.1c0.3,0.1,0.4,0.3,0.3,0.6c-0.1,0.2,0,0.5-0.3,0.6c-0.3,0.1-0.4-0.1-0.5-0.4
		C79.3,47,79,47,78.6,47c-0.3,0.1-0.6,0.3-0.6,0.6c-0.1,0.5,0.3,0.7,0.6,0.8c0.1,0,0.1,0,0.2,0.1c1.2,0.5,1.6,1.1,1.4,1.9
		C79.9,51.2,79.1,51.7,77.8,51.7z"/>
	<path style="fill:#9EADB2;" d="M75,47.4c0.3-0.2,0.5-0.5,0.9-0.7c0.2-0.2,0.6-0.4,0.7-0.1c0.2,0.3,0.1,0.9-0.3,0.9
		c-1.4,0.1-1.5,1.3-1.7,2.2c-0.1,0.4-0.2,0.9-0.3,1.4c-0.1,0.5-0.4,0.5-0.7,0.4c-0.5-0.1-0.2-0.4-0.2-0.6c0.2-0.9,0.4-1.8,0.6-2.7
		c0.1-0.4,0.3-0.9-0.4-1c-0.4-0.1-0.2-0.3,0-0.4C74.2,46.3,74.9,46.6,75,47.4z"/>
	<path style="fill:#9EADB2;" d="M25.6,47.4c0.3-0.3,0.5-0.5,0.8-0.7c0.2-0.2,0.4-0.3,0.7-0.2c0.2,0.1,0.2,0.3,0.1,0.5
		c-0.1,0.2,0,0.6-0.4,0.6c-0.9,0-1.2,0.7-1.4,1.3c-0.2,0.7-0.4,1.4-0.5,2.2c-0.1,0.5-0.4,0.5-0.7,0.5c-0.6-0.1-0.3-0.4-0.2-0.7
		c0.2-0.9,0.4-1.7,0.5-2.6c0.1-0.5,0.4-1-0.4-1.2c-0.4-0.1,0-0.3,0.1-0.4C24.8,46.3,25.3,46.6,25.6,47.4z"/>
	<path style="fill:#9EADB2;" d="M32,47.2c0-0.2,0-0.3,0-0.5c0.4,0.4,0.7-0.1,1-0.1c0.8,0,1.1,0.2,1,1c-0.2,0.9-0.4,1.8-0.6,2.7
		c-0.1,0.3-0.2,0.6,0.2,0.7c0.2,0,0.5-0.1,0.4,0.3c0,0.2-0.3,0.2-0.4,0.3c-1,0.3-1.4,0-1.3-1c0.1-0.8,0.3-1.5,0.5-2.3
		C33.1,47.3,33,47.2,32,47.2z"/>
	<path style="fill:#9EADB2;" d="M114.9,47.2c0-0.1,0-0.2,0-0.4c2-0.5,2.2-0.3,1.7,1.8c-0.1,0.5-0.2,1-0.3,1.5c-0.1,0.4-0.4,1,0.5,1
		c0.2,0,0.2,0.3,0.1,0.4c-0.4,0.2-0.8,0.4-1.2,0.2c-0.5-0.2-0.5-0.6-0.4-0.9c0.1-0.8,0.3-1.6,0.5-2.4
		C116,47.5,115.8,47.1,114.9,47.2z"/>
	<path style="fill:#9EADB2;" d="M94.3,50.4c0.1-0.6,0.4-1.4,0.5-2.2c0.1-0.4,0.3-0.9-0.4-1c-0.3,0-0.2-0.3-0.1-0.4
		c0.4-0.2,0.8-0.3,1.2-0.2c0.4,0.2,0.4,0.6,0.4,0.9c-0.2,0.9-0.4,1.8-0.6,2.7c-0.1,0.3-0.2,0.6,0.3,0.7c0.2,0,0.4,0,0.4,0.3
		c0,0.2-0.2,0.2-0.3,0.3C94.7,51.9,94.2,51.6,94.3,50.4z"/>
	<path style="fill:#9EADB2;" d="M47.4,29.8c0.5-0.1,0.8,0,0.8,0.6c0,0.6-0.1,0.8-0.8,0.8c-0.6,0-0.8-0.1-0.7-0.7
		C46.7,30,46.8,29.6,47.4,29.8z"/>
	<path style="fill:#9EADB2;" d="M74.8,30.5c0.1,0.6-0.1,0.8-0.7,0.8c-0.6,0-0.7-0.2-0.7-0.7c0-0.6,0.1-0.7,0.7-0.7
		C74.6,29.8,74.9,29.9,74.8,30.5z"/>
	<path style="fill:#9EADB2;" d="M20.6,29.8c0.6-0.1,0.8,0.1,0.7,0.7c0,0.5-0.1,0.8-0.7,0.8c-0.6,0-0.8-0.2-0.7-0.7
		C19.9,30,19.9,29.6,20.6,29.8z"/>
	<path style="fill:#9EADB2;" d="M114.1,30.5c0.1,0.6-0.2,0.7-0.7,0.7c-0.6,0-0.7-0.3-0.7-0.8c0-0.6,0.2-0.7,0.8-0.7
		C114.1,29.7,114.2,30,114.1,30.5z"/>
	<path style="fill:#9EADB2;" d="M87.4,30.4c-0.2-0.7,0.2-0.6,0.7-0.7c0.6,0,0.6,0.2,0.6,0.7c0,0.5-0.1,0.8-0.7,0.8
		C87.4,31.2,87.3,31,87.4,30.4z"/>
	<path style="fill:#9EADB2;" d="M33.8,44.4c0.3,0.1,0.7,0.2,0.7,0.6c0,0.4-0.2,0.7-0.6,0.7c-0.4,0-0.7-0.2-0.7-0.6
		C33.2,44.7,33.5,44.5,33.8,44.4z"/>
	<path style="fill:#9EADB2;" d="M96.3,45.2c0,0.4-0.3,0.6-0.7,0.6c-0.4,0-0.6-0.3-0.6-0.7c0-0.4,0.3-0.6,0.7-0.6
		C96.2,44.5,96.4,44.8,96.3,45.2z"/>
	<path style="fill:#9EADB2;" d="M117.3,45.1c-0.1,0.4-0.3,0.6-0.7,0.6c-0.4,0-0.6-0.2-0.6-0.6c0-0.4,0.3-0.7,0.7-0.7
		C117.1,44.5,117.3,44.8,117.3,45.1z"/>
</g>
</svg>
