<?xml version="1.0" encoding="utf-8"?>
<!-- Generator: Adobe Illustrator 27.8.1, SVG Export Plug-In . SVG Version: 6.00 Build 0)  -->
<svg version="1.1" id="Layer_1" xmlns="http://www.w3.org/2000/svg" xmlns:xlink="http://www.w3.org/1999/xlink" x="0px" y="0px"
	 viewBox="0 0 196.8 112.5" style="enable-background:new 0 0 196.8 112.5;" xml:space="preserve">
<g>
	<path style="fill:#9EADB2;" d="M121.1,75.8c-0.3,0-0.6,0-0.9,0c-21.8,0-43.5,0-65.3,0c-0.3,0-0.6,0-0.9,0c0-0.1,0-0.2,0-0.3
		c0-0.5,0-0.9,0-1.4c0-24.7,0-49.3,0-74c0.3,0,0.7,0,1,0C76.7,0,98.4,0,120,0c0.4,0,0.7,0,1.1,0C121.1,25.3,121.1,50.5,121.1,75.8z
		 M99.8,36.4c0.8-0.1,1.4-0.2,2-0.3c6.6-0.9,9.9-4.2,10.4-10.4c0.4-4.3-1.8-8.1-5.6-9.9c-1.8-0.8-3.7-1.3-5.7-1.4
		c-6.4-0.1-12.8,0-19.2-0.1c-0.8,0-0.6,0.5-0.6,0.9c-0.1,0.5,0.1,0.8,0.7,0.7c1-0.1,1.9,0,2.9,0c0.5,0,0.7,0.1,0.7,0.7
		c0,6,0,12,0,18.1c0,0.5-0.1,0.7-0.7,0.7c-5,0-10,0-15,0c-0.5,0-0.6-0.2-0.6-0.6c0-6.1,0-12.1,0-18.2c0-0.5,0.2-0.6,0.6-0.6
		c0.9,0,1.8,0,2.7,0c0.7,0,0.9-0.1,0.9-0.9c0-0.8-0.4-0.8-1-0.8c-4.4,0-8.8,0-13.2,0c-0.6,0-0.9,0.1-0.9,0.8c0,0.8,0.3,0.9,0.9,0.8
		c0.7,0,1.5,0,2.2,0c0.9-0.1,1.2,0.2,1.1,1.1c0,10,0,20,0,30c0,4.1,0,8.1,0,12.2c0,0.7-0.2,0.9-0.9,0.9c-0.9-0.1-1.8,0-2.7,0
		c-0.6,0-0.7,0.3-0.7,0.8c0,0.4-0.1,0.9,0.6,0.9c4.6,0,9.1,0,13.7,0c0.7,0,0.7-0.4,0.7-0.9c0-0.6-0.1-0.9-0.7-0.8
		c-0.9,0.1-1.9,0-2.8,0c-0.5,0-0.7-0.2-0.7-0.7c0-7.2,0-14.5,0-21.7c0-0.6,0.2-0.7,0.7-0.7c4.9,0,9.8,0,14.8,0
		c0.6,0,0.7,0.2,0.7,0.7c0,7.2,0,14.5,0,21.7c0,0.5-0.1,0.7-0.7,0.7c-1,0-2,0-3,0c-0.7,0-0.6,0.4-0.6,0.9c0,0.4-0.1,0.8,0.6,0.8
		c4.8,0,9.5,0,14.3,0c0.7,0,0.6-0.4,0.6-0.8c0-0.4,0.1-0.9-0.6-0.8c-1.1,0-2.1,0-3.2,0c-0.7,0-0.9-0.2-0.9-0.9c0-4.4,0-8.8,0-13.3
		c0-2.7,0-5.5,0-8.2c0-0.3-0.2-0.8,0.4-0.8c2.2,0,4.3-0.2,6.4,0.7c2.9,1.3,3.8,3.7,4.1,6.6c0.4,3.7,0.7,7.5,1,11.2
		c0.3,3.4,2.1,5.7,5.3,6.9c2.3,0.8,4.6,0.4,6.8-0.4c1.5-0.5,1.5-0.5,1.3-2.2c-1,0.3-2,0.7-3.1,0.8c-1.6,0.1-2.7-0.5-3.2-2.1
		c-0.1-0.5-0.2-1-0.3-1.5c-0.4-2.6,0-5.3-0.2-8c-0.3-5.8-3-9.8-8.5-11.7C101.5,37.1,100.8,36.8,99.8,36.4z"/>
	<path style="fill:#9EADB2;" d="M121.1,75.8c0-25.2,0-50.5,0-75.7c0.4,0,0.7,0,1.1,0c19.5,0,39.1,0,58.6,0c0.9,0,1.2,0.2,1.2,1.2
		c0,24.5,0,49,0,73.5c0,0.7,0,1.2-1,1.2c-19.7,0-39.4,0-59.1,0C121.6,75.8,121.4,75.8,121.1,75.8z M161.8,17.5c0.1,0,0.1,0,0.2,0
		c0,0.3,0,0.7,0,1c0,7.7,0,15.5,0,23.2c0,5.8,0,11.6,0,17.4c0,0.8-0.2,1-1,0.9c-1.1-0.1-2.1,0-3.2,0c-0.7,0-0.6,0.4-0.6,0.8
		c0,0.4-0.1,0.8,0.6,0.8c5,0,10,0,15,0c0.7,0,0.6-0.4,0.6-0.8c0-0.5,0-0.9-0.6-0.8c-1,0-2.1-0.1-3.1,0c-0.9,0.1-1.1-0.3-1.1-1.1
		c0.1-1.4,0-2.8,0-4.2c0-12.5,0-24.9,0-37.4c0-1.1,0.3-1.4,1.3-1.3c0.9,0.1,1.8,0,2.7,0c0.8,0.1,0.8-0.4,0.8-1
		c0-0.6-0.1-0.9-0.8-0.9c-3.9,0-7.7,0-11.6,0c-0.6,0-0.8,0.2-1,0.8c-2.5,8.8-5.1,17.6-7.6,26.4c-0.7,2.6-1.5,5.2-2.3,7.8
		c-0.4-0.2-0.4-0.6-0.4-0.8c-0.8-2.7-1.5-5.4-2.3-8c-2.4-8.4-4.8-16.8-7.2-25.3c-0.1-0.4-0.2-0.9-0.8-0.9c-4,0-7.9,0-11.9,0
		c-0.8,0-0.6,0.5-0.6,0.9c0,0.5-0.1,0.9,0.7,0.9c1.1-0.1,2.1,0,3.2,0c0.7,0,1,0.1,1,0.9c-0.1,1,0,1.9,0,2.9c0,12.9,0,25.8,0,38.7
		c0,1.4,0,1.4-1.5,1.4c-0.9,0-1.8,0-2.7,0c-0.6,0-0.6,0.3-0.6,0.8c0,0.4-0.2,0.9,0.5,0.9c3.5,0,7,0,10.5,0c0.8,0,0.5-0.5,0.6-0.9
		c0-0.4,0.1-0.8-0.6-0.8c-1,0-2.1-0.1-3.1,0c-0.9,0.1-1.1-0.2-1.1-1.1c0-13.5,0-27,0-40.5c0-0.3,0-0.6,0-1c0.4,0.3,0.4,0.7,0.5,1
		c1.1,3.8,2.2,7.6,3.3,11.4c3,10.3,6,20.7,8.9,31c0.1,0.3,0.1,0.7,0.4,0.8c1,0.4,2.1-0.1,2.4-1.2c3.9-13.6,7.9-27.1,11.8-40.7
		C161.3,19.1,161.5,18.3,161.8,17.5z"/>
	<path style="fill:#9EADB2;" d="M54.1,75.4c0,0.1,0,0.2,0,0.3c-0.3,0-0.5,0-0.8,0c-17.5,0-35,0-52.5,0c-0.2,0-0.4,0-0.6,0
		c-0.1,0-0.1-0.1-0.2-0.1c0-0.3,0-0.7,0-1c0-24.5,0-49,0-73.5C0,0.3,0.2,0,1.1,0c17.3,0,34.5,0,51.8,0c0.3,0,0.7,0,1,0
		c0,24.7,0,49.4,0,74.1C53.9,74.6,53.8,75.1,54.1,75.4z M11,54.8c0,2,0,3.9,0,5.9c0,1.1,0.7,1.5,1.7,0.9c0.2-0.1,0.3-0.2,0.5-0.4
		c0.9-0.7,1.9-1.4,2.8-2.1c0.3-0.2,0.5-0.3,0.9-0.1c4.9,3,10.2,3.8,15.8,2.9c4.2-0.7,7.9-2.4,10.7-5.6c4.4-5.1,4.6-14.1-2.6-18.7
		c-1-0.6-1.9-1.2-3-1.6c-3.2-1.4-6.7-2.2-10-3.2c-2.7-0.8-5.5-1.5-8-3.1c-1.6-1-2.8-2.4-3.4-4.3c-0.9-3.5,0.5-6.6,3.8-8.5
		c2.8-1.6,5.7-1.9,8.9-1.5c6,0.8,10.8,5.1,12,11.1c0.1,0.8,0.4,1,1.1,0.9c1.7,0,1.7,0,1.7-1.7c0-3.6,0-7.1,0-10.7
		c0-0.6-0.1-0.9-0.8-0.9c-0.5,0-0.9,0.2-1.3,0.5c-0.7,0.6-1.4,1.2-2,1.8c-0.4,0.4-0.7,0.4-1.2,0.1c-3.9-2.5-8.2-3.3-12.8-3.1
		c-3.5,0.2-6.7,1.1-9.5,3.2c-6.5,4.8-7,15.1,1.1,19.5c0.7,0.4,1.4,0.7,2.2,1c2.8,1.2,5.7,1.7,8.6,2.6c3.1,0.9,6.2,1.6,9,3.3
		c5.6,3.3,6.1,10.5,0.9,14.5c-4.2,3.2-8.9,3.7-13.8,2.3c-5.5-1.6-8.6-5.5-10.3-10.7c-0.4-1.2-0.9-1.5-2-1.4c-0.1,0-0.1,0-0.2,0
		C11.2,47.8,11,48,11,48.6C11,50.7,11,52.7,11,54.8z"/>
	<path style="fill:#9EADB2;" d="M78.2,108.6c0.5-2.5,1-5,1.5-7.5c0.2-0.8,0.6-1,1.8-0.8c0.9,0.2,0.3,0.7,0.2,1.1
		c-0.7,3.4-1.5,6.7-2.2,10.1c-0.2,1-0.8,0.9-1.5,1c-0.8,0.1-1-0.3-1.1-1c-0.5-2.4-0.9-4.8-1.6-7.2c-0.5,2.4-1,4.8-1.4,7.2
		c-0.1,0.6-0.1,1.1-1,1c-0.7-0.1-1.4,0.2-1.6-0.9c-0.7-3.5-1.5-7-2.3-10.5c-0.1-0.6,0-0.7,0.6-0.8c1.5,0,1.5,0,1.7,1.4
		c0.4,2.2,0.8,4.4,1.2,6.6c0,0.2,0.1,0.4,0.3,0.7c0.6-2.7,1.1-5.3,1.6-7.9c0.1-0.6,0.3-0.8,1-0.8c0.7,0,0.9,0.2,1,0.9
		c0.5,2.4,1,4.7,1.5,7.1c0,0.1,0.1,0.3,0.1,0.4C78,108.6,78.1,108.6,78.2,108.6z"/>
	<path style="fill:#9EADB2;" d="M68.8,82.1c2.1-0.3,2.1-0.3,2.5,1.6c0.4,2,0.8,4,1.2,6.1c0,0.3,0.1,0.5,0.3,0.8
		c0.5-2.6,1.1-5.2,1.6-7.8c0.1-0.7,0.4-0.8,1-0.8c0.6,0,0.9,0.1,1,0.8c0.5,2.4,1,4.8,1.5,7.2c0,0.2,0,0.3,0.3,0.5
		c0.3-1.5,0.6-3,0.9-4.5c0.2-1.1,0.4-2.2,0.6-3.3c0.3-1.2,1.3-0.5,1.9-0.5c0.7,0,0.2,0.6,0.2,0.9c-0.7,3.5-1.6,6.9-2.3,10.4
		c-0.2,0.9-0.8,0.8-1.4,0.8c-0.6,0-1,0-1.2-0.8c-0.4-2.2-0.8-4.3-1.3-6.4c-0.1-0.4-0.2-0.7-0.3-1.3c-0.5,2.7-1,5.2-1.5,7.7
		c-0.1,0.5-0.1,1-0.9,0.9c-0.6-0.1-1.4,0.4-1.7-0.8C70.6,89.6,69.7,85.9,68.8,82.1z"/>
	<path style="fill:#9EADB2;" d="M6.1,87.9c1.5,0.8,2.1,2.2,1.7,4c-0.3,1.4-1.4,2.3-3.1,2.3c-1.4,0-2.7,0-4.1,0
		c-0.5,0-0.6-0.1-0.6-0.6c0-3.6,0-7.3,0-10.9C0,82.2,0.2,82,0.6,82c1.2,0,2.4,0,3.6,0c1.8,0,2.9,0.6,3.3,2C8,85.5,7.6,86.8,6.1,87.9
		z M2,90.6c0,1.9,0,1.9,1.9,1.8c0.2,0,0.3,0,0.5,0c0.8,0,1.2-0.5,1.4-1.2c0.3-1.5-0.4-2.4-1.9-2.4C2,88.8,2,88.8,2,90.6z M2,85.4
		c0,1.7,0,1.7,1.1,1.7c2,0,2.4-0.3,2.4-1.6c0-1.3-0.5-1.7-2.3-1.7C2,83.8,2,83.8,2,85.4z"/>
	<path style="fill:#9EADB2;" d="M6.1,106.1c1.6,1,2.1,2.3,1.7,4c-0.3,1.3-1.2,2.2-2.6,2.3c-1.6,0.1-3.1,0-4.7,0
		c-0.5,0-0.5-0.2-0.5-0.6c0-3.7,0-7.3,0-11c0-0.4,0.2-0.6,0.6-0.6c1.4,0,2.8,0,4.2,0c1.5,0.1,2.5,0.9,2.8,2.2
		C8,104.1,7.5,105.2,6.1,106.1z M2,108.9c0,1.9,0,1.9,1.9,1.9c1.4,0,1.9-0.6,1.9-1.8c0-1.3-0.6-1.8-1.9-1.8C2,107,2,107,2,108.9z
		 M3.4,102C2,102,2,102,2,103.4c0,2.2,0.1,2.3,2.2,2c0.8-0.1,1.2-0.5,1.3-1.4C5.8,102.5,5.1,102,3.4,102z"/>
	<path style="fill:#9EADB2;" d="M60.4,94.1c-2.1,0.1-2.1,0.1-2.9-1.7c-0.3-0.7-0.7-1.4-0.9-2.1c-0.2-0.7-0.7-0.8-1.3-0.8
		c-0.4,0-0.6,0.1-0.6,0.6c0,1.1,0,2.3,0,3.4c0,0.8-0.5,0.7-0.9,0.6c-0.4-0.1-1.1,0.4-1.1-0.6c0-3.7,0-7.3,0-11
		c0-0.5,0.2-0.6,0.6-0.6c1.2,0,2.5,0,3.7,0c1.6,0.1,2.9,1.1,3.3,2.6c0.5,1.8-0.1,3.5-1.5,4.3c-0.6,0.3-0.5,0.6-0.3,1.1
		c0.6,1.3,1.2,2.6,1.8,3.9C60.4,93.9,60.4,94,60.4,94.1z M56,83.8c-1.3,0-1.3,0-1.3,1.3c0,0.7,0,1.3,0,2c0,0.6,0.1,0.9,0.8,0.8
		c0.4,0,0.7,0,1.1,0c1,0,1.6-0.6,1.7-1.6C58.5,84.6,57.7,83.8,56,83.8z"/>
	<path style="fill:#9EADB2;" d="M105.6,94.1c-2.2,0.1-2.2,0.1-3-1.7c-0.3-0.7-0.7-1.4-0.9-2.1c-0.3-0.9-0.9-0.7-1.5-0.7
		c-0.4,0-0.3,0.3-0.3,0.6c0,1.1,0,2.3,0,3.4c0,0.9-0.6,0.6-1,0.6c-0.4,0-1,0.3-1-0.6c0-3.7,0-7.3,0-11c0-0.5,0.2-0.6,0.6-0.6
		c1.2,0,2.4,0,3.6,0c1.7,0,2.9,1,3.3,2.5c0.5,1.8,0,3.6-1.4,4.4c-0.5,0.3-0.5,0.5-0.3,1C104.2,91.3,104.9,92.7,105.6,94.1z
		 M99.8,85.8c0,0.5,0,1,0,1.5c0,0.2-0.1,0.4,0.1,0.6c0.6,0.5,2.9-0.1,3.2-0.8c0.4-0.9,0.4-1.8-0.2-2.6c-0.4-0.5-2.4-0.9-2.9-0.5
		C99.5,84.3,99.9,85.1,99.8,85.8C99.8,85.7,99.8,85.7,99.8,85.8z"/>
	<path style="fill:#9EADB2;" d="M52.7,106.3c0-1.7,0-3.5,0-5.2c0-0.7,0.2-0.9,0.9-0.9c1.1,0.1,2.1,0,3.2,0c1.8,0.1,3.1,1,3.5,2.6
		c0.5,1.9,0,3.5-1.6,4.4c-0.5,0.3-0.4,0.5-0.2,0.9c0.6,1.2,1.1,2.4,1.7,3.6c0.2,0.5,0.2,0.7-0.4,0.7c-1.1,0.1-1.8-0.1-2.1-1.3
		c-0.3-0.9-0.8-1.8-1.2-2.7c-0.3-0.8-0.9-0.6-1.4-0.6c-0.6,0-0.3,0.6-0.3,0.9c0,1,0,2.1,0,3.1c0,0.9-0.6,0.6-1,0.6
		c-0.4,0-1,0.3-1-0.6C52.7,110,52.7,108.1,52.7,106.3z M55.7,102c-0.9-0.2-1.2,0.2-1.1,1.2c0.1,0.8,0,1.5,0,2.3
		c0,0.5,0.1,0.7,0.7,0.7c0.4,0,0.7,0,1.1,0c1.2-0.1,1.8-0.7,1.9-1.9C58.4,102.7,57.7,102,55.7,102z"/>
	<path style="fill:#9EADB2;" d="M107.7,112.3c-2.1,0.3-2.1,0.3-2.9-1.5c-0.3-0.8-0.7-1.5-1-2.3c-0.3-0.8-0.8-0.8-1.4-0.7
		c-0.7,0.1-0.3,0.7-0.4,1c-0.1,0.9,0,1.7,0,2.6c0,0.3,0.2,0.8-0.2,0.9c-0.5,0.1-1.1,0.1-1.7,0c-0.2,0-0.1-0.3-0.1-0.5
		c0-3.6,0-7.2,0-10.9c0-0.5,0.2-0.7,0.7-0.7c1.2,0,2.4,0,3.6,0c1.7,0.1,2.9,1,3.3,2.6c0.5,1.8-0.1,3.5-1.5,4.4
		c-0.5,0.3-0.4,0.5-0.2,0.9C106.4,109.5,107,110.9,107.7,112.3z M102,104.1c0,2.3,0,2.3,1.9,2.1c1.2-0.1,1.8-1,1.7-2.4
		c-0.1-1.3-0.9-1.8-2.9-1.8c-1.4,0.1-0.4,1.2-0.7,1.7C101.9,103.8,102,103.9,102,104.1z"/>
	<path style="fill:#9EADB2;" d="M121.1,106.4c0-1.8,0-3.6,0-5.4c0-0.6,0.2-0.8,0.7-0.7c0.9,0,1.8,0,2.7,0c2.7,0,4.4,1.4,5,4
		c0.4,1.7,0.4,3.4-0.3,5.1c-0.8,1.9-2.3,3-4.4,3c-1,0-2,0-3,0c-0.6,0-0.8-0.1-0.8-0.8C121.1,109.9,121.1,108.1,121.1,106.4z
		 M123.1,106.3c0,1.3,0,2.5,0,3.8c0,0.3-0.1,0.6,0.4,0.7c1.8,0.4,3.3-0.4,3.9-2.1c0.5-1.5,0.5-3.1,0-4.6c-0.6-1.6-2.2-2.4-3.9-2
		c-0.4,0.1-0.3,0.4-0.3,0.6C123.1,103.8,123.1,105,123.1,106.3z"/>
	<path style="fill:#9EADB2;" d="M94.1,88.1c0,1.4-0.2,2.8-1,4.1c-1.8,2.9-5.7,3-7.5,0.2c-1.5-2.3-1.5-6.3,0-8.5
		c1.8-2.7,5.6-2.7,7.4,0C93.8,85.1,94.1,86.6,94.1,88.1z M92,88.2c0-1.5-0.3-2.6-0.8-3.4c-1-1.6-3.1-1.6-4,0.1
		c-1.1,2.2-1.1,4.5,0,6.7c0.9,1.7,3,1.6,4,0C91.8,90.5,92,89.3,92,88.2z"/>
	<path style="fill:#9EADB2;" d="M111.5,87.4c0.8-1.3,1.7-2.6,2.5-3.9c1-1.6,1-1.6,3.2-1.5c-0.1,0.7-0.6,1.1-1,1.7
		c-0.7,1.1-1.5,2.3-2.3,3.4c-0.4,0.5-0.4,0.9,0,1.4c1.3,1.8,2.5,3.7,3.7,5.6c-2,0.4-2.2,0.4-3.1-1.2c-0.7-1.2-1.5-2.3-2.2-3.5
		c-0.7,0.7-1.1,1.5-1,2.4c0.1,0.5,0,1,0,1.5c0,0.3,0.2,0.9-0.2,1c-0.5,0.1-1.1,0.1-1.7,0c-0.2,0-0.1-0.4-0.1-0.6c0-3.6,0-7.2,0-10.8
		c0-0.9,0.6-0.7,1-0.7c0.5,0,1.1-0.2,1,0.7c-0.1,1.5,0,3.1,0,4.6C111.3,87.4,111.4,87.4,111.5,87.4z"/>
	<path style="fill:#9EADB2;" d="M140.3,94.2c0.6-2,1.2-3.9,1.7-5.8c0.6-1.9,1.1-3.7,1.6-5.6c0.1-0.5,0.3-0.8,0.9-0.8
		c1.7,0,1.7,0,2.2,1.7c0.9,3.2,1.9,6.4,2.9,9.6c0.2,0.6,0.2,0.9-0.6,0.9c-1,0-1.5-0.2-1.6-1.2c-0.1-1.1-0.6-1.4-1.6-1.2
		c-0.3,0-0.5,0-0.8,0c-1.9,0-1.9,0-2.5,1.9c-0.1,0.4-0.3,0.6-0.8,0.6C141.4,94.2,140.9,94.2,140.3,94.2z M145.2,84
		c-0.6,2.2-1.1,4.1-1.6,6.1c0.9,0,1.8,0,2.6,0c0.6,0,0.7-0.2,0.5-0.7C146.2,87.7,145.7,85.9,145.2,84z"/>
	<path style="fill:#9EADB2;" d="M164.3,88.1c0-1.7,0-3.5,0-5.2c0-0.6,0.1-0.9,0.8-0.9c1.7,0.1,3.4,0.1,5.1,0c0.7,0,0.8,0.3,0.8,0.9
		c0,0.6-0.1,1-0.8,0.9c-1-0.1-2.1,0-3.1,0c-0.5,0-0.7,0.1-0.7,0.7c-0.1,2.6-0.1,2.6,2.5,2.6c0.3,0,0.6,0,0.9,0c1,0,1.4,0.6,1,1.5
		c-0.1,0.4-0.4,0.2-0.7,0.2c-1,0-2.1,0-3.1,0c-0.5,0-0.7,0.1-0.7,0.6c0.1,1-0.4,2.2,0.2,2.8c0.5,0.6,1.8,0.1,2.7,0.2
		c0.2,0,0.5,0,0.7,0c1-0.2,1.1,0.4,1.1,1.2c0,0.4-0.2,0.6-0.6,0.6c-1.8,0-3.7,0-5.5,0c-0.6,0-0.6-0.3-0.6-0.8
		C164.3,91.7,164.3,89.9,164.3,88.1z"/>
	<path style="fill:#9EADB2;" d="M11.6,106.4c0-1.8,0-3.5,0-5.3c0-0.6,0.1-0.8,0.7-0.8c1.7,0,3.5,0.1,5.2,0c0.8,0,0.7,0.4,0.7,0.9
		c0,0.5,0,0.9-0.7,0.8c-1-0.1-2.1,0-3.1,0c-0.6,0-0.8,0.1-0.8,0.7c0,2.6-0.1,2.6,2.5,2.6c0.3,0,0.7,0,1,0c0.9-0.1,1.1,0.2,1,1
		c0,0.5-0.2,0.7-0.7,0.7c-1,0-2.1,0-3.1,0c-0.5,0-0.7,0.1-0.8,0.7c-0.1,2.9-0.1,2.9,2.8,2.9c0.3,0,0.5,0,0.8,0c1,0,1.3,0.5,1,1.4
		c-0.1,0.3-0.3,0.3-0.5,0.3c-1.9,0-3.7,0-5.6,0c-0.6,0-0.5-0.3-0.5-0.7C11.6,109.9,11.6,108.2,11.6,106.4z"/>
	<path style="fill:#9EADB2;" d="M42.3,106.3c0-1.8,0-3.5,0-5.3c0-0.6,0.2-0.7,0.7-0.7c1.7,0,3.5,0.1,5.2,0c0.8,0,0.7,0.5,0.7,1
		c0,0.6-0.1,0.8-0.7,0.8c-1.1-0.1-2.1,0-3.2,0c-0.5,0-0.7,0.2-0.7,0.7c-0.1,2.7-0.1,2.7,2.5,2.7c0.3,0,0.7,0,1,0c0.8-0.1,1,0.2,1,1
		c0,0.6-0.3,0.8-0.8,0.8c-0.9,0-1.9,0-2.8,0c-0.7,0-1,0.1-0.9,0.9c0.1,0.9-0.4,2,0.2,2.6c0.5,0.6,1.7,0.1,2.6,0.2c0.3,0,0.5,0,0.8,0
		c1,0,1.3,0.4,1.1,1.4c-0.1,0.4-0.3,0.3-0.6,0.3c-1.8,0-3.6,0-5.4,0c-0.6,0-0.7-0.2-0.6-0.7C42.3,109.9,42.3,108.1,42.3,106.3z"/>
	<path style="fill:#9EADB2;" d="M11.6,88.1c0-1.8,0-3.5,0-5.3c0-0.6,0.1-0.8,0.8-0.8c1.7,0,3.5,0.1,5.2,0c0.7,0,0.7,0.3,0.7,0.8
		c0,0.5,0.1,1-0.7,1c-1-0.1-2.1,0-3.1,0c-0.6,0-0.8,0.1-0.8,0.7c0,2.6-0.1,2.6,2.5,2.6c0.3,0,0.7,0,1,0c0.8-0.1,1.1,0.2,1,1
		c0,0.6-0.2,0.7-0.8,0.7c-1,0-2.1,0-3.1,0c-0.5,0-0.7,0.2-0.7,0.7c0,0.8,0,1.5,0,2.3c0,0.5,0.2,0.7,0.7,0.7c1.1,0,2.2,0,3.3,0
		c0.8,0,0.6,0.5,0.6,0.9c0,0.4,0.1,0.9-0.6,0.8c-1.8,0-3.6,0-5.4,0c-0.6,0-0.6-0.2-0.6-0.7C11.6,91.7,11.6,89.9,11.6,88.1z"/>
	<path style="fill:#9EADB2;" d="M120.7,88.1c0-1.8,0-3.5,0-5.3c0-0.7,0.2-0.8,0.8-0.8c1.1,0,2.3,0,3.4,0c2.1,0.1,3.5,1.6,3.5,3.8
		c0,2.3-1.4,3.7-3.5,3.8c-0.7,0-1.6-0.3-2,0.1c-0.4,0.5-0.1,1.4-0.1,2.1c0,0.4-0.1,0.9,0,1.3c0.2,0.9-0.3,1.1-1.1,1.1
		c-0.8,0-1-0.3-1-1C120.7,91.5,120.7,89.8,120.7,88.1z M122.7,85.8c0,0.5,0,1,0,1.5c0,0.2-0.1,0.4,0.1,0.5c0.4,0.3,2.6-0.1,2.9-0.5
		c0.6-0.7,0.7-2,0.2-2.8c-0.4-0.7-2-1.2-3-0.7c-0.7,0.3-0.1,1.2-0.3,1.8C122.7,85.7,122.7,85.7,122.7,85.8z"/>
	<path style="fill:#9EADB2;" d="M42.3,88.1c0-1.8,0-3.5,0-5.3c0-0.5,0-0.8,0.7-0.8c1.8,0,3.5,0.1,5.3,0c0.8,0,0.7,0.4,0.7,0.9
		c0,0.4,0.2,1-0.6,0.9c-1.1-0.1-2.2,0-3.3,0c-0.5,0-0.7,0.2-0.7,0.7c-0.1,2.6-0.1,2.6,2.5,2.6c0.3,0,0.7,0,1,0c0.9-0.1,1,0.3,1,1.1
		c0,0.5-0.2,0.7-0.7,0.7c-1.1,0-2.1,0-3.2,0c-0.5,0-0.6,0.1-0.6,0.6c-0.2,3-0.2,3,2.8,3c0.3,0,0.5,0,0.8,0c0.8-0.1,1.1,0.2,1,1
		c0,0.6-0.1,0.8-0.8,0.8c-1.7,0-3.4-0.1-5.1,0c-0.7,0-0.8-0.2-0.8-0.9C42.3,91.6,42.3,89.8,42.3,88.1z"/>
	<path style="fill:#9EADB2;" d="M178.1,94.4c-1.2,0-2.4-0.3-3.4-1c-0.9-0.7,0.1-1.1,0.3-1.5c0.3-0.7,0.5-0.1,0.8,0.1
		c0.7,0.5,1.4,0.8,2.2,0.8c0.9,0,1.7-0.3,1.9-1.2c0.3-0.9-0.1-1.6-0.9-2.1c-0.9-0.5-1.8-0.9-2.6-1.4c-1-0.6-1.7-1.4-1.8-2.6
		c-0.1-1.8,1.1-3.2,3-3.5c1.1-0.2,2.2,0,3.2,0.5c1.1,0.5,1.1,0.7,0.4,1.7c-0.3,0.4-0.5,0.5-0.8,0.1c-0.6-0.5-1.4-0.7-2.2-0.6
		c-0.7,0-1.2,0.3-1.5,1c-0.2,0.7,0,1.3,0.7,1.7c0.9,0.5,1.8,0.9,2.7,1.4c0.9,0.5,1.6,1.3,1.8,2.4C182.5,92.6,180.9,94.4,178.1,94.4z
		"/>
	<path style="fill:#9EADB2;" d="M154.2,88c0,1.3,0.2,2.4,0.7,3.3c1,1.8,2.9,1.9,4,0.1c0.6-1,1.1-0.1,1.6,0c0.7,0.2,0.2,0.6,0,0.9
		c-1.5,2.6-5.2,2.7-7.1,0.2c-1.8-2.3-1.8-6.7,0-9c1.9-2.5,5.5-2.4,7.1,0.1c0.1,0.2,0.6,0.6,0.1,0.8c-0.5,0.2-1,1-1.5,0.3
		c-0.7-0.9-1.4-1.4-2.5-1.2c-1.1,0.3-1.6,1.2-2,2.2C154.3,86.6,154.2,87.4,154.2,88z"/>
	<path style="fill:#9EADB2;" d="M111.4,106.4c0-1.7,0.1-3.4,0-5.1c0-0.9,0.3-1,1.1-1c0.9,0,1,0.3,1,1.1c0,2.8,0,5.6,0,8.5
		c0,0.8,0.2,1,1,0.9c0.9-0.1,1.7,0,2.6,0c0.8-0.1,0.6,0.4,0.7,0.9c0,0.5,0,0.9-0.7,0.9c-1.6-0.1-3.2,0-4.9,0c-0.5,0-0.7-0.2-0.7-0.7
		C111.4,109.9,111.4,108.1,111.4,106.4z"/>
	<path style="fill:#9EADB2;" d="M34.2,89c0-1.4-0.1-2.8,0-4.2c0.1-0.9-0.3-1.2-1.1-1c-0.2,0-0.5,0-0.7,0c-0.9,0.1-1.1-0.3-1-1.1
		c0-0.6,0.2-0.7,0.7-0.7c2.1,0,4.1,0,6.2,0c0.8,0,0.7,0.4,0.7,0.9c0,0.4,0.2,1-0.6,0.9c-0.7,0-1.6-0.3-2,0.1
		c-0.5,0.5-0.1,1.4-0.1,2.1c0,2.5-0.1,4.9,0,7.4c0,1-0.6,0.7-1.1,0.8c-0.6,0-1,0-1-0.8C34.2,91.9,34.2,90.5,34.2,89z"/>
	<path style="fill:#9EADB2;" d="M25.1,100.3c1,0,2.1,0,3.1,0c0.8,0,0.6,0.5,0.6,0.9c0,0.4,0.1,0.9-0.6,0.8c-0.7,0-1.6-0.3-2,0.1
		c-0.5,0.5-0.1,1.4-0.1,2.1c0,2.5,0,4.9,0,7.4c0,0.8-0.4,0.8-1,0.8c-0.5,0-1.1,0.2-1.1-0.8c0.1-2.8,0-5.6,0-8.5
		c0-0.9-0.1-1.4-1.2-1.2c-0.2,0-0.4,0-0.6,0c-0.9,0.2-1.2-0.2-1.1-1.1c0-0.5,0.2-0.7,0.7-0.7C22.9,100.3,24,100.3,25.1,100.3z"/>
	<path style="fill:#9EADB2;" d="M34.2,107.2c0-1.5,0-3,0-4.5c0-0.6-0.2-0.8-0.7-0.7c-0.4,0-0.7,0-1.1,0c-0.9,0.2-1-0.3-1-1.1
		c0-0.5,0.2-0.7,0.7-0.7c2.1,0,4.2,0,6.3,0c0.8,0,0.6,0.5,0.6,0.9c0,0.4,0.1,0.9-0.6,0.8c-0.7,0-1.6-0.3-2,0.1
		c-0.5,0.5-0.2,1.5-0.2,2.2c0,2.4-0.1,4.8,0,7.3c0,0.9-0.5,0.8-1,0.8c-0.6,0-1.1,0-1-0.9C34.2,110.1,34.2,108.6,34.2,107.2z"/>
	<path style="fill:#9EADB2;" d="M26,89.1c0,1.4-0.1,2.8,0,4.2c0,0.8-0.2,1-1,0.9c-0.6,0-1.1,0.1-1.1-0.9c0.1-2.9,0-5.8,0-8.7
		c0-0.7-0.2-1-0.9-0.9c-0.3,0-0.6,0-0.9,0c-0.8,0.1-1.1-0.2-1.1-1c0-0.6,0.2-0.8,0.8-0.8c2,0,4.1,0,6.1,0c0.7,0,0.7,0.3,0.7,0.8
		c0,0.5,0.2,1-0.7,1C26,83.8,26,83.9,26,86C26,87.1,26,88.1,26,89.1z"/>
	<path style="fill:#9EADB2;" d="M133.9,87.2c0,1.5,0,3,0,4.5c0,0.6,0.2,0.8,0.7,0.7c0.9,0,1.9,0,2.8,0c0.7,0,0.7,0.4,0.7,0.9
		c0,0.4,0.2,0.9-0.6,0.9c-1.7,0-3.3,0-5,0c-0.5,0-0.6-0.2-0.6-0.6c0-3.6,0-7.3,0-10.9c0-0.9,0.6-0.6,1-0.6c0.4,0,1-0.3,1,0.6
		C133.8,84.2,133.9,85.7,133.9,87.2z"/>
	<path style="fill:#9EADB2;" d="M196.8,6c0,3.2-2.6,5.7-5.8,5.7c-3.2,0-5.8-2.6-5.7-5.8c0-3.2,2.6-5.7,5.8-5.7
		C194.2,0.3,196.8,2.8,196.8,6z M191,1.2c-2.7,0-4.9,2.1-4.9,4.7c0,2.6,2.1,4.8,4.8,4.9c2.7,0,4.9-2.2,4.9-4.8
		C195.8,3.3,193.7,1.2,191,1.2z"/>
	<path style="fill:#9EADB2;" d="M54.1,75.4c-0.3-0.4-0.2-0.8-0.2-1.3c0-24.7,0-49.4,0-74.1c0.1,0,0.1,0,0.2,0c0,24.7,0,49.3,0,74
		C54.1,74.5,54.1,75,54.1,75.4z"/>
	<path style="fill:#9EADB2;" d="M92.2,103.6c-2.1-0.2-3.8-1.1-4.7-3.3c2.2,0,4.4-0.2,6.5,0.1C93.2,101.4,92.6,102.4,92.2,103.6z"/>
	<path style="fill:#9EADB2;" d="M87.2,106.4c1,1.9,0.9,3.8-0.5,5.7c-1.1-2-2.2-3.8-3.2-5.7C84.7,106.4,85.9,106.4,87.2,106.4z"/>
	<path style="fill:#9EADB2;" d="M92,109.2c1.2-1.8,2.8-2.8,5.2-2.4c-1.2,1.9-2.1,3.9-3.4,5.6c-0.5-1-0.8-2.1-1.8-2.8
		c0-0.1,0-0.1,0-0.2C92,109.3,92,109.3,92,109.2z"/>
	<path style="fill:#9EADB2;" d="M137.3,103.5c0.4-1.1,0.7-1.8,0.9-2.6c0.1-0.4,0.3-0.6,0.8-0.6c0.5,0.1,0.3,0.4,0.3,0.7
		c0,1.1,0,2.2,0,3.3c0,0.2,0.1,0.6-0.3,0.6c-0.4,0-0.3-0.4-0.3-0.6c0-0.8,0-1.7-0.2-2.5c-0.4,1-0.8,2.1-1.2,3.4
		c-0.5-1.3-0.9-2.3-1.3-3.3c-0.1,0-0.1,0-0.2,0c0,0.9,0,1.7,0,2.6c0,0.2,0.1,0.5-0.3,0.5c-0.4,0-0.3-0.3-0.3-0.6c0-1.1,0-2.3,0-3.4
		c0-0.2-0.1-0.6,0.3-0.6c0.3,0,0.6,0,0.8,0.4C136.6,101.6,136.9,102.4,137.3,103.5z"/>
	<path style="fill:#9EADB2;" d="M92,109.6c0.9,0.7,1.3,1.8,1.8,2.8c-2,0.2-4,0.1-6,0C89.3,111.7,90.8,110.8,92,109.6z"/>
	<path style="fill:#9EADB2;" d="M92.2,103.6c0.4-1.2,1-2.2,1.8-3.2c1.1,1.6,2,3.3,2.9,5c-0.5,0-0.8-0.4-1.1-0.6
		C94.6,104.2,93.5,103.5,92.2,103.6L92.2,103.6z"/>
	<path style="fill:#9EADB2;" d="M87.2,106.4c-1.2,0-2.4,0-3.7,0c0.9-1.9,2-3.7,3.1-5.4c0,0.2-0.1,0.5-0.1,0.7
		c-0.1,1.6-0.3,3.2,0.7,4.6C87.2,106.2,87.2,106.3,87.2,106.4z"/>
	<path style="fill:#9EADB2;" d="M87.2,106.2c-1-1.4-0.8-3-0.7-4.6c0-0.2,0.1-0.5,0.1-0.7c0.6,0,0.5,0.6,0.8,0.9
		c1.2,1.2,1.2,2.5,0.1,3.8C87.4,105.8,87.3,106,87.2,106.2z"/>
	<path style="fill:#9EADB2;" d="M92,109.6c-1.2,1.2-2.7,2.1-4.2,2.8c-0.1,0-0.4,0.1-0.3-0.2c0.1-0.2,0.3-0.4,0.4-0.7
		c0.6-2,2-2.6,3.9-2.3c0.1,0,0.1,0.1,0.2,0.1C92,109.4,92,109.5,92,109.6z"/>
	<path style="fill:#9EADB2;" d="M92.2,103.6c1.3-0.1,2.4,0.6,3.5,1.2c0.4,0.2,0.6,0.6,1.1,0.6c0,0,0,0,0,0c0,0.2,0,0.3,0.2,0.4
		c0,0,0,0,0,0c0,0.1-0.1,0.1,0,0.2c-0.3,0-0.5,0-0.8,0.1C93.5,106,93.5,106,92.2,103.6z"/>
	<path style="fill:#9EADB2;" d="M134.5,100.7c0,0.3-0.2,0.4-0.4,0.3c-0.6-0.1-0.7,0.3-0.7,0.8c0,0.9,0,1.7,0,2.6
		c0,0.2,0,0.5-0.3,0.5c-0.3,0-0.2-0.3-0.2-0.5c0-0.9,0-1.7,0-2.6c0-0.5,0-0.9-0.7-0.8c-0.3,0-0.5-0.1-0.4-0.4c0-0.2,0.1-0.4,0.4-0.4
		c0.7,0,1.4,0,2.1,0C134.5,100.3,134.5,100.5,134.5,100.7z"/>
	<path style="fill:#9EADB2;" d="M97,105.7c-0.2-0.1-0.2-0.2-0.2-0.4C97,105.4,97,105.6,97,105.7z"/>
	<path style="fill:#9EADB2;" d="M97,105.9c0-0.1,0-0.1,0-0.2c0,0,0.1,0.1,0.1,0.1C97.1,105.9,97,105.9,97,105.9z"/>
	<path style="fill:#9EADB2;" d="M0.1,75.6c0.1,0,0.1,0.1,0.2,0.1C0.1,75.8,0,75.8,0.1,75.6z"/>
	<path style="fill:#9EADB2;" d="M92,109.4c-0.1,0-0.1-0.1-0.2-0.1c0.1,0,0.1,0,0.2,0C92,109.3,92,109.3,92,109.4z"/>
	<path style="fill:#9EADB2;" d="M92,25.6c0-2.9,0-5.9,0-8.8c0-0.6,0.1-0.9,0.8-0.8c1.6,0.1,3.3,0,4.9,0c4.4,0.1,6.5,1.9,7.1,6.2
		c0.4,2.6,0.3,5.2-0.3,7.8c-0.7,3-2.6,4.7-5.7,5.1c-2.1,0.3-4.2,0.2-6.3,0.2C92,35.4,92,35,92,34.6C92,31.6,92,28.6,92,25.6z"/>
	<path style="fill:#9EADB2;" d="M191.9,6.3c0.6,0.9,1.2,1.8,1.7,2.7c-0.7,0.3-1.1,0.1-1.4-0.5c-0.4-0.6-0.8-1.2-1.2-1.8
		c-0.3-0.4-0.6-0.5-1-0.4c-0.5,0.1-0.3,0.5-0.3,0.8c0,0.5,0,1,0,1.5c0,0.4-0.1,0.5-0.5,0.5c-0.4,0-0.4-0.2-0.4-0.5
		c0-1.7,0-3.5,0-5.2c0-0.4,0.2-0.6,0.6-0.6c0.8,0,1.7,0,2.5,0c1.2,0,1.8,0.5,1.9,1.4c0.1,1.1-0.3,1.6-1.5,2
		C192.2,6.2,192.1,6.2,191.9,6.3z M190.9,5.3c0.4,0,0.8,0,1.1-0.1c0.4,0,0.8-0.2,0.8-0.7c0-0.5-0.3-0.7-0.8-0.7
		c-0.5-0.1-1,0-1.5-0.1c-0.7-0.1-1,0.2-0.9,0.9C189.7,5.7,190.5,5.1,190.9,5.3z"/>
</g>
</svg>
